<svg width="98" height="97" viewBox="0 0 98 97" fill="none" xmlns="http://www.w3.org/2000/svg">
<g filter="url(#filter0_dd)">
<ellipse cx="48.7053" cy="45.9573" rx="35.926" ry="35.9043" fill="white"/>
</g>
<path d="M47.5206 66.8687C49.5834 66.8687 51.2712 65.1934 51.2712 63.1457H43.7701C43.7701 65.1934 45.4391 66.8687 47.5206 66.8687ZM58.7722 55.6998V46.3924C58.7722 40.6777 55.6968 35.8937 50.3335 34.6279V33.362C50.3335 31.817 49.0771 30.5698 47.5206 30.5698C45.9642 30.5698 44.7077 31.817 44.7077 33.362V34.6279C39.3258 35.8937 36.2691 40.6591 36.2691 46.3924V55.6998L32.5186 59.4228V61.2843H62.5227V59.4228L58.7722 55.6998Z" fill="#333333"/>
<path d="M67.5814 37.3439C67.5814 42.0239 63.7964 45.8158 59.1297 45.8158C54.463 45.8158 50.678 42.0239 50.678 37.3439C50.678 32.664 54.463 28.8721 59.1297 28.8721C63.7964 28.8721 67.5814 32.664 67.5814 37.3439Z" fill="#00ADEE" stroke="#00ADEE" stroke-width="0.990764"/>
<path d="M62.0999 33.193V34.0014L58.7352 41.5154H57.475L60.7683 34.2273H56.9638V35.7135H55.8224V33.193H62.0999Z" fill="white"/>
<defs>
<filter id="filter0_dd" x="0.394751" y="0.145341" width="96.6212" height="96.5778" filterUnits="userSpaceOnUse" color-interpolation-filters="sRGB">
<feFlood flood-opacity="0" result="BackgroundImageFix"/>
<feColorMatrix in="SourceAlpha" type="matrix" values="0 0 0 0 0 0 0 0 0 0 0 0 0 0 0 0 0 0 127 0"/>
<feOffset dy="2.47691"/>
<feGaussianBlur stdDeviation="6.19227"/>
<feColorMatrix type="matrix" values="0 0 0 0 0 0 0 0 0 0 0 0 0 0 0 0 0 0 0.25 0"/>
<feBlend mode="normal" in2="BackgroundImageFix" result="effect1_dropShadow"/>
<feColorMatrix in="SourceAlpha" type="matrix" values="0 0 0 0 0 0 0 0 0 0 0 0 0 0 0 0 0 0 127 0"/>
<feOffset dy="1.98153"/>
<feGaussianBlur stdDeviation="2.47691"/>
<feColorMatrix type="matrix" values="0 0 0 0 0.2 0 0 0 0 0.2 0 0 0 0 0.2 0 0 0 0.1 0"/>
<feBlend mode="normal" in2="effect1_dropShadow" result="effect2_dropShadow"/>
<feBlend mode="normal" in="SourceGraphic" in2="effect2_dropShadow" result="shape"/>
</filter>
</defs>
</svg>
