<svg width="311" height="120" viewBox="0 0 311 120" fill="none" xmlns="http://www.w3.org/2000/svg">
<path d="M1.672 61.24C1.672 60.8293 1.74933 60.4427 1.904 60.08C2.064 59.7173 2.27733 59.4027 2.544 59.136C2.81067 58.864 3.12267 58.6507 3.48 58.496C3.84267 58.336 4.22667 58.256 4.632 58.256C5.04267 58.256 5.42667 58.336 5.784 58.496C6.14667 58.6507 6.46133 58.864 6.728 59.136C7 59.4027 7.21333 59.7173 7.368 60.08C7.528 60.4427 7.608 60.8293 7.608 61.24C7.608 61.6507 7.528 62.0373 7.368 62.4C7.21333 62.7573 7 63.0693 6.728 63.336C6.46133 63.6027 6.14667 63.816 5.784 63.976C5.42667 64.1307 5.04267 64.208 4.632 64.208C4.22667 64.208 3.84267 64.1307 3.48 63.976C3.12267 63.816 2.81067 63.6027 2.544 63.336C2.27733 63.0693 2.064 62.7573 1.904 62.4C1.74933 62.0373 1.672 61.6507 1.672 61.24ZM21.343 64.696V66H14.839V54.536H16.383V64.696H21.343ZM24.2258 57.896V66H22.8018V57.896H24.2258ZM24.5298 55.352C24.5298 55.4907 24.5004 55.6213 24.4418 55.744C24.3884 55.8613 24.3138 55.968 24.2178 56.064C24.1271 56.1547 24.0178 56.2267 23.8898 56.28C23.7671 56.3333 23.6364 56.36 23.4978 56.36C23.3591 56.36 23.2284 56.3333 23.1058 56.28C22.9884 56.2267 22.8844 56.1547 22.7938 56.064C22.7031 55.968 22.6311 55.8613 22.5778 55.744C22.5244 55.6213 22.4978 55.4907 22.4978 55.352C22.4978 55.2133 22.5244 55.0827 22.5778 54.96C22.6311 54.832 22.7031 54.7227 22.7938 54.632C22.8844 54.536 22.9884 54.4613 23.1058 54.408C23.2284 54.3547 23.3591 54.328 23.4978 54.328C23.6364 54.328 23.7671 54.3547 23.8898 54.408C24.0178 54.4613 24.1271 54.536 24.2178 54.632C24.3138 54.7227 24.3884 54.832 24.4418 54.96C24.5004 55.0827 24.5298 55.2133 24.5298 55.352ZM33.5095 57.896L30.2055 66H28.9255L25.6215 57.896H26.7815C26.8988 57.896 26.9948 57.9253 27.0695 57.984C27.1442 58.0427 27.1948 58.112 27.2215 58.192L29.2775 63.408C29.3415 63.6053 29.3975 63.7973 29.4455 63.984C29.4935 64.1707 29.5388 64.3573 29.5815 64.544C29.6242 64.3573 29.6695 64.1707 29.7175 63.984C29.7655 63.7973 29.8242 63.6053 29.8935 63.408L31.9735 58.192C32.0055 58.1067 32.0588 58.0373 32.1335 57.984C32.2082 57.9253 32.2962 57.896 32.3975 57.896H33.5095ZM40.0208 61.064C40.0208 60.7333 39.9728 60.432 39.8768 60.16C39.7861 59.8827 39.6501 59.6453 39.4688 59.448C39.2928 59.2453 39.0768 59.0907 38.8208 58.984C38.5648 58.872 38.2741 58.816 37.9488 58.816C37.2661 58.816 36.7248 59.016 36.3248 59.416C35.9301 59.8107 35.6848 60.36 35.5888 61.064H40.0208ZM41.1728 64.864C40.9968 65.0773 40.7861 65.264 40.5408 65.424C40.2954 65.5787 40.0314 65.7067 39.7488 65.808C39.4714 65.9093 39.1834 65.984 38.8848 66.032C38.5861 66.0853 38.2901 66.112 37.9968 66.112C37.4368 66.112 36.9194 66.0187 36.4448 65.832C35.9754 65.64 35.5674 65.3627 35.2208 65C34.8794 64.632 34.6128 64.1787 34.4208 63.64C34.2288 63.1013 34.1328 62.4827 34.1328 61.784C34.1328 61.2187 34.2181 60.6907 34.3888 60.2C34.5648 59.7093 34.8154 59.2853 35.1408 58.928C35.4661 58.5653 35.8634 58.2827 36.3328 58.08C36.8021 57.872 37.3301 57.768 37.9168 57.768C38.4021 57.768 38.8501 57.8507 39.2608 58.016C39.6768 58.176 40.0341 58.4107 40.3328 58.72C40.6368 59.024 40.8741 59.4027 41.0448 59.856C41.2154 60.304 41.3008 60.816 41.3008 61.392C41.3008 61.616 41.2768 61.7653 41.2288 61.84C41.1808 61.9147 41.0901 61.952 40.9568 61.952H35.5408C35.5568 62.464 35.6261 62.9093 35.7488 63.288C35.8768 63.6667 36.0528 63.984 36.2768 64.24C36.5008 64.4907 36.7674 64.68 37.0768 64.808C37.3861 64.9307 37.7328 64.992 38.1168 64.992C38.4741 64.992 38.7808 64.952 39.0368 64.872C39.2981 64.7867 39.5221 64.696 39.7088 64.6C39.8954 64.504 40.0501 64.416 40.1728 64.336C40.3008 64.2507 40.4101 64.208 40.5008 64.208C40.6181 64.208 40.7088 64.2533 40.7728 64.344L41.1728 64.864ZM53.8076 57.896V66H52.9596C52.757 66 52.629 65.9013 52.5756 65.704L52.4636 64.832C52.1116 65.2213 51.717 65.536 51.2796 65.776C50.8423 66.0107 50.341 66.128 49.7756 66.128C49.333 66.128 48.941 66.056 48.5996 65.912C48.2636 65.7627 47.981 65.5547 47.7516 65.288C47.5223 65.0213 47.349 64.6987 47.2316 64.32C47.1196 63.9413 47.0636 63.5227 47.0636 63.064V57.896H48.4876V63.064C48.4876 63.6773 48.6263 64.152 48.9036 64.488C49.1863 64.824 49.6156 64.992 50.1916 64.992C50.613 64.992 51.005 64.8933 51.3676 64.696C51.7356 64.4933 52.0743 64.216 52.3836 63.864V57.896H53.8076ZM57.4975 64.048C57.7588 64.4 58.0442 64.648 58.3535 64.792C58.6628 64.936 59.0095 65.008 59.3935 65.008C60.1508 65.008 60.7322 64.7387 61.1375 64.2C61.5428 63.6613 61.7455 62.8933 61.7455 61.896C61.7455 61.368 61.6975 60.9147 61.6015 60.536C61.5108 60.1573 61.3775 59.848 61.2015 59.608C61.0255 59.3627 60.8095 59.184 60.5535 59.072C60.2975 58.96 60.0068 58.904 59.6815 58.904C59.2175 58.904 58.8095 59.0107 58.4575 59.224C58.1108 59.4373 57.7908 59.7387 57.4975 60.128V64.048ZM57.4255 59.152C57.7668 58.7307 58.1615 58.392 58.6095 58.136C59.0575 57.88 59.5695 57.752 60.1455 57.752C60.6148 57.752 61.0388 57.8427 61.4175 58.024C61.7962 58.2 62.1188 58.464 62.3855 58.816C62.6522 59.1627 62.8575 59.5947 63.0015 60.112C63.1455 60.6293 63.2175 61.224 63.2175 61.896C63.2175 62.4933 63.1375 63.0507 62.9775 63.568C62.8175 64.08 62.5855 64.5253 62.2815 64.904C61.9828 65.2773 61.6148 65.5733 61.1775 65.792C60.7455 66.0053 60.2575 66.112 59.7135 66.112C59.2175 66.112 58.7908 66.0293 58.4335 65.864C58.0815 65.6933 57.7695 65.4587 57.4975 65.16V68.744H56.0655V57.896H56.9215C57.1242 57.896 57.2495 57.9947 57.2975 58.192L57.4255 59.152ZM70.3143 59.824C70.0476 59.4667 69.7596 59.2187 69.4503 59.08C69.1409 58.936 68.7943 58.864 68.4103 58.864C67.6583 58.864 67.0796 59.1333 66.6743 59.672C66.2689 60.2107 66.0663 60.9787 66.0663 61.976C66.0663 62.504 66.1116 62.9573 66.2023 63.336C66.2929 63.7093 66.4263 64.0187 66.6023 64.264C66.7783 64.504 66.9943 64.68 67.2503 64.792C67.5063 64.904 67.7969 64.96 68.1223 64.96C68.5916 64.96 68.9996 64.8533 69.3463 64.64C69.6983 64.4267 70.0209 64.1253 70.3143 63.736V59.824ZM71.7383 54.216V66H70.8903C70.6876 66 70.5596 65.9013 70.5063 65.704L70.3783 64.72C70.0316 65.136 69.6369 65.472 69.1943 65.728C68.7516 65.984 68.2396 66.112 67.6583 66.112C67.1943 66.112 66.7729 66.024 66.3943 65.848C66.0156 65.6667 65.6929 65.4027 65.4263 65.056C65.1596 64.7093 64.9543 64.2773 64.8103 63.76C64.6663 63.2427 64.5943 62.648 64.5943 61.976C64.5943 61.3787 64.6743 60.824 64.8343 60.312C64.9943 59.7947 65.2236 59.3467 65.5223 58.968C65.8209 58.5893 66.1863 58.2933 66.6183 58.08C67.0556 57.8613 67.5463 57.752 68.0903 57.752C68.5863 57.752 69.0103 57.8373 69.3623 58.008C69.7196 58.1733 70.0369 58.4053 70.3143 58.704V54.216H71.7383ZM78.3794 62.352C77.7234 62.3733 77.1634 62.4267 76.6994 62.512C76.2407 62.592 75.8647 62.6987 75.5714 62.832C75.2834 62.9653 75.0727 63.1227 74.9394 63.304C74.8114 63.4853 74.7474 63.688 74.7474 63.912C74.7474 64.1253 74.782 64.3093 74.8514 64.464C74.9207 64.6187 75.014 64.7467 75.1314 64.848C75.254 64.944 75.3954 65.016 75.5554 65.064C75.7207 65.1067 75.8967 65.128 76.0834 65.128C76.334 65.128 76.5634 65.104 76.7714 65.056C76.9794 65.0027 77.174 64.928 77.3554 64.832C77.542 64.736 77.718 64.6213 77.8834 64.488C78.054 64.3547 78.2194 64.2027 78.3794 64.032V62.352ZM73.7794 59.04C74.2274 58.608 74.71 58.2853 75.2274 58.072C75.7447 57.8587 76.318 57.752 76.9474 57.752C77.4007 57.752 77.8034 57.8267 78.1554 57.976C78.5074 58.1253 78.8034 58.3333 79.0434 58.6C79.2834 58.8667 79.4647 59.1893 79.5874 59.568C79.71 59.9467 79.7714 60.3627 79.7714 60.816V66H79.1394C79.0007 66 78.894 65.9787 78.8194 65.936C78.7447 65.888 78.686 65.7973 78.6434 65.664L78.4834 64.896C78.27 65.0933 78.062 65.2693 77.8594 65.424C77.6567 65.5733 77.4434 65.7013 77.2194 65.808C76.9954 65.9093 76.7554 65.9867 76.4994 66.04C76.2487 66.0987 75.9687 66.128 75.6594 66.128C75.3447 66.128 75.0487 66.0853 74.7714 66C74.494 65.9093 74.2514 65.776 74.0434 65.6C73.8407 65.424 73.678 65.2027 73.5554 64.936C73.438 64.664 73.3794 64.344 73.3794 63.976C73.3794 63.656 73.4674 63.3493 73.6434 63.056C73.8194 62.7573 74.1047 62.4933 74.4994 62.264C74.894 62.0347 75.4087 61.848 76.0434 61.704C76.678 61.5547 77.4567 61.4693 78.3794 61.448V60.816C78.3794 60.1867 78.2434 59.712 77.9714 59.392C77.6994 59.0667 77.302 58.904 76.7794 58.904C76.4274 58.904 76.1314 58.9493 75.8914 59.04C75.6567 59.1253 75.4514 59.224 75.2754 59.336C75.1047 59.4427 74.9554 59.5413 74.8274 59.632C74.7047 59.7173 74.582 59.76 74.4594 59.76C74.3634 59.76 74.2807 59.736 74.2114 59.688C74.142 59.6347 74.0834 59.5707 74.0354 59.496L73.7794 59.04ZM84.3191 66.128C83.6791 66.128 83.1858 65.9493 82.8391 65.592C82.4978 65.2347 82.3271 64.72 82.3271 64.048V59.088H81.3511C81.2658 59.088 81.1938 59.064 81.1351 59.016C81.0765 58.9627 81.0471 58.8827 81.0471 58.776V58.208L82.3751 58.04L82.7031 55.536C82.7191 55.456 82.7538 55.392 82.8071 55.344C82.8658 55.2907 82.9405 55.264 83.0311 55.264H83.7511V58.056H86.0951V59.088H83.7511V63.952C83.7511 64.2933 83.8338 64.5467 83.9991 64.712C84.1645 64.8773 84.3778 64.96 84.6391 64.96C84.7885 64.96 84.9165 64.9413 85.0231 64.904C85.1351 64.8613 85.2311 64.816 85.3111 64.768C85.3911 64.72 85.4578 64.6773 85.5111 64.64C85.5698 64.5973 85.6205 64.576 85.6631 64.576C85.7378 64.576 85.8045 64.6213 85.8631 64.712L86.2791 65.392C86.0338 65.6213 85.7378 65.8027 85.3911 65.936C85.0445 66.064 84.6871 66.128 84.3191 66.128ZM92.9426 61.064C92.9426 60.7333 92.8946 60.432 92.7986 60.16C92.708 59.8827 92.572 59.6453 92.3906 59.448C92.2146 59.2453 91.9986 59.0907 91.7426 58.984C91.4866 58.872 91.196 58.816 90.8706 58.816C90.188 58.816 89.6466 59.016 89.2466 59.416C88.852 59.8107 88.6066 60.36 88.5106 61.064H92.9426ZM94.0946 64.864C93.9186 65.0773 93.708 65.264 93.4626 65.424C93.2173 65.5787 92.9533 65.7067 92.6706 65.808C92.3933 65.9093 92.1053 65.984 91.8066 66.032C91.508 66.0853 91.212 66.112 90.9186 66.112C90.3586 66.112 89.8413 66.0187 89.3666 65.832C88.8973 65.64 88.4893 65.3627 88.1426 65C87.8013 64.632 87.5346 64.1787 87.3426 63.64C87.1506 63.1013 87.0546 62.4827 87.0546 61.784C87.0546 61.2187 87.14 60.6907 87.3106 60.2C87.4866 59.7093 87.7373 59.2853 88.0626 58.928C88.388 58.5653 88.7853 58.2827 89.2546 58.08C89.724 57.872 90.252 57.768 90.8386 57.768C91.324 57.768 91.772 57.8507 92.1826 58.016C92.5986 58.176 92.956 58.4107 93.2546 58.72C93.5586 59.024 93.796 59.4027 93.9666 59.856C94.1373 60.304 94.2226 60.816 94.2226 61.392C94.2226 61.616 94.1986 61.7653 94.1506 61.84C94.1026 61.9147 94.012 61.952 93.8786 61.952H88.4626C88.4786 62.464 88.548 62.9093 88.6706 63.288C88.7986 63.6667 88.9746 63.984 89.1986 64.24C89.4226 64.4907 89.6893 64.68 89.9986 64.808C90.308 64.9307 90.6546 64.992 91.0386 64.992C91.396 64.992 91.7026 64.952 91.9586 64.872C92.22 64.7867 92.444 64.696 92.6306 64.6C92.8173 64.504 92.972 64.416 93.0946 64.336C93.2226 64.2507 93.332 64.208 93.4226 64.208C93.54 64.208 93.6306 64.2533 93.6946 64.344L94.0946 64.864ZM101.252 59.824C100.985 59.4667 100.697 59.2187 100.388 59.08C100.078 58.936 99.7318 58.864 99.3478 58.864C98.5958 58.864 98.0171 59.1333 97.6118 59.672C97.2064 60.2107 97.0038 60.9787 97.0038 61.976C97.0038 62.504 97.0491 62.9573 97.1398 63.336C97.2304 63.7093 97.3638 64.0187 97.5398 64.264C97.7158 64.504 97.9318 64.68 98.1878 64.792C98.4438 64.904 98.7344 64.96 99.0598 64.96C99.5291 64.96 99.9371 64.8533 100.284 64.64C100.636 64.4267 100.958 64.1253 101.252 63.736V59.824ZM102.676 54.216V66H101.828C101.625 66 101.497 65.9013 101.444 65.704L101.316 64.72C100.969 65.136 100.574 65.472 100.132 65.728C99.6891 65.984 99.1771 66.112 98.5958 66.112C98.1318 66.112 97.7104 66.024 97.3318 65.848C96.9531 65.6667 96.6304 65.4027 96.3638 65.056C96.0971 64.7093 95.8918 64.2773 95.7478 63.76C95.6038 63.2427 95.5318 62.648 95.5318 61.976C95.5318 61.3787 95.6118 60.824 95.7718 60.312C95.9318 59.7947 96.1611 59.3467 96.4598 58.968C96.7584 58.5893 97.1238 58.2933 97.5558 58.08C97.9931 57.8613 98.4838 57.752 99.0278 57.752C99.5238 57.752 99.9478 57.8373 100.3 58.008C100.657 58.1733 100.974 58.4053 101.252 58.704V54.216H102.676ZM110.491 54.216V66H109.067V54.216H110.491ZM118.224 61.064C118.224 60.7333 118.176 60.432 118.08 60.16C117.989 59.8827 117.853 59.6453 117.672 59.448C117.496 59.2453 117.28 59.0907 117.024 58.984C116.768 58.872 116.477 58.816 116.152 58.816C115.469 58.816 114.928 59.016 114.528 59.416C114.133 59.8107 113.888 60.36 113.792 61.064H118.224ZM119.376 64.864C119.2 65.0773 118.989 65.264 118.744 65.424C118.499 65.5787 118.235 65.7067 117.952 65.808C117.675 65.9093 117.387 65.984 117.088 66.032C116.789 66.0853 116.493 66.112 116.2 66.112C115.64 66.112 115.123 66.0187 114.648 65.832C114.179 65.64 113.771 65.3627 113.424 65C113.083 64.632 112.816 64.1787 112.624 63.64C112.432 63.1013 112.336 62.4827 112.336 61.784C112.336 61.2187 112.421 60.6907 112.592 60.2C112.768 59.7093 113.019 59.2853 113.344 58.928C113.669 58.5653 114.067 58.2827 114.536 58.08C115.005 57.872 115.533 57.768 116.12 57.768C116.605 57.768 117.053 57.8507 117.464 58.016C117.88 58.176 118.237 58.4107 118.536 58.72C118.84 59.024 119.077 59.4027 119.248 59.856C119.419 60.304 119.504 60.816 119.504 61.392C119.504 61.616 119.48 61.7653 119.432 61.84C119.384 61.9147 119.293 61.952 119.16 61.952H113.744C113.76 62.464 113.829 62.9093 113.952 63.288C114.08 63.6667 114.256 63.984 114.48 64.24C114.704 64.4907 114.971 64.68 115.28 64.808C115.589 64.9307 115.936 64.992 116.32 64.992C116.677 64.992 116.984 64.952 117.24 64.872C117.501 64.7867 117.725 64.696 117.912 64.6C118.099 64.504 118.253 64.416 118.376 64.336C118.504 64.2507 118.613 64.208 118.704 64.208C118.821 64.208 118.912 64.2533 118.976 64.344L119.376 64.864ZM125.645 62.352C124.989 62.3733 124.429 62.4267 123.965 62.512C123.506 62.592 123.13 62.6987 122.837 62.832C122.549 62.9653 122.338 63.1227 122.205 63.304C122.077 63.4853 122.013 63.688 122.013 63.912C122.013 64.1253 122.048 64.3093 122.117 64.464C122.186 64.6187 122.28 64.7467 122.397 64.848C122.52 64.944 122.661 65.016 122.821 65.064C122.986 65.1067 123.162 65.128 123.349 65.128C123.6 65.128 123.829 65.104 124.037 65.056C124.245 65.0027 124.44 64.928 124.621 64.832C124.808 64.736 124.984 64.6213 125.149 64.488C125.32 64.3547 125.485 64.2027 125.645 64.032V62.352ZM121.045 59.04C121.493 58.608 121.976 58.2853 122.493 58.072C123.01 57.8587 123.584 57.752 124.213 57.752C124.666 57.752 125.069 57.8267 125.421 57.976C125.773 58.1253 126.069 58.3333 126.309 58.6C126.549 58.8667 126.73 59.1893 126.853 59.568C126.976 59.9467 127.037 60.3627 127.037 60.816V66H126.405C126.266 66 126.16 65.9787 126.085 65.936C126.01 65.888 125.952 65.7973 125.909 65.664L125.749 64.896C125.536 65.0933 125.328 65.2693 125.125 65.424C124.922 65.5733 124.709 65.7013 124.485 65.808C124.261 65.9093 124.021 65.9867 123.765 66.04C123.514 66.0987 123.234 66.128 122.925 66.128C122.61 66.128 122.314 66.0853 122.037 66C121.76 65.9093 121.517 65.776 121.309 65.6C121.106 65.424 120.944 65.2027 120.821 64.936C120.704 64.664 120.645 64.344 120.645 63.976C120.645 63.656 120.733 63.3493 120.909 63.056C121.085 62.7573 121.37 62.4933 121.765 62.264C122.16 62.0347 122.674 61.848 123.309 61.704C123.944 61.5547 124.722 61.4693 125.645 61.448V60.816C125.645 60.1867 125.509 59.712 125.237 59.392C124.965 59.0667 124.568 58.904 124.045 58.904C123.693 58.904 123.397 58.9493 123.157 59.04C122.922 59.1253 122.717 59.224 122.541 59.336C122.37 59.4427 122.221 59.5413 122.093 59.632C121.97 59.7173 121.848 59.76 121.725 59.76C121.629 59.76 121.546 59.736 121.477 59.688C121.408 59.6347 121.349 59.5707 121.301 59.496L121.045 59.04ZM132.03 62.04C132.318 62.04 132.571 62 132.79 61.92C133.009 61.84 133.193 61.728 133.342 61.584C133.491 61.44 133.603 61.2693 133.678 61.072C133.753 60.8693 133.79 60.648 133.79 60.408C133.79 59.912 133.638 59.5173 133.334 59.224C133.035 58.9307 132.601 58.784 132.03 58.784C131.454 58.784 131.014 58.9307 130.71 59.224C130.411 59.5173 130.262 59.912 130.262 60.408C130.262 60.648 130.299 60.8693 130.374 61.072C130.454 61.2693 130.569 61.44 130.718 61.584C130.867 61.728 131.051 61.84 131.27 61.92C131.489 62 131.742 62.04 132.03 62.04ZM134.598 66.44C134.598 66.2427 134.542 66.0827 134.43 65.96C134.318 65.8373 134.166 65.7413 133.974 65.672C133.787 65.6027 133.569 65.5547 133.318 65.528C133.067 65.496 132.801 65.472 132.518 65.456C132.241 65.44 131.958 65.424 131.67 65.408C131.382 65.392 131.105 65.3653 130.838 65.328C130.539 65.4667 130.294 65.6427 130.102 65.856C129.915 66.064 129.822 66.3093 129.822 66.592C129.822 66.7733 129.867 66.9413 129.958 67.096C130.054 67.256 130.198 67.392 130.39 67.504C130.582 67.6213 130.822 67.712 131.11 67.776C131.403 67.8453 131.747 67.88 132.142 67.88C132.526 67.88 132.87 67.8453 133.174 67.776C133.478 67.7067 133.734 67.608 133.942 67.48C134.155 67.352 134.318 67.2 134.43 67.024C134.542 66.848 134.598 66.6533 134.598 66.44ZM136.046 58.216V58.744C136.046 58.92 135.934 59.032 135.71 59.08L134.79 59.2C134.971 59.552 135.062 59.9413 135.062 60.368C135.062 60.7627 134.985 61.1227 134.83 61.448C134.681 61.768 134.473 62.0427 134.206 62.272C133.939 62.5013 133.619 62.6773 133.246 62.8C132.873 62.9227 132.467 62.984 132.03 62.984C131.651 62.984 131.294 62.9387 130.958 62.848C130.787 62.9547 130.657 63.0693 130.566 63.192C130.475 63.3093 130.43 63.4293 130.43 63.552C130.43 63.744 130.507 63.8907 130.662 63.992C130.822 64.088 131.03 64.1573 131.286 64.2C131.542 64.2427 131.833 64.2693 132.158 64.28C132.489 64.2907 132.825 64.3093 133.166 64.336C133.513 64.3573 133.849 64.3973 134.174 64.456C134.505 64.5147 134.798 64.6107 135.054 64.744C135.31 64.8773 135.515 65.0613 135.67 65.296C135.83 65.5307 135.91 65.8347 135.91 66.208C135.91 66.5547 135.822 66.8907 135.646 67.216C135.475 67.5413 135.227 67.8293 134.902 68.08C134.577 68.336 134.177 68.5387 133.702 68.688C133.233 68.8427 132.702 68.92 132.11 68.92C131.518 68.92 131.001 68.8613 130.558 68.744C130.115 68.6267 129.747 68.4693 129.454 68.272C129.161 68.0747 128.939 67.8453 128.79 67.584C128.646 67.328 128.574 67.0587 128.574 66.776C128.574 66.376 128.699 66.0373 128.95 65.76C129.201 65.4827 129.545 65.2613 129.982 65.096C129.742 64.9893 129.55 64.848 129.406 64.672C129.267 64.4907 129.198 64.248 129.198 63.944C129.198 63.8267 129.219 63.7067 129.262 63.584C129.305 63.456 129.369 63.3307 129.454 63.208C129.545 63.08 129.654 62.96 129.782 62.848C129.91 62.736 130.059 62.6373 130.23 62.552C129.83 62.328 129.518 62.032 129.294 61.664C129.07 61.2907 128.958 60.8587 128.958 60.368C128.958 59.9733 129.033 59.616 129.182 59.296C129.337 58.9707 129.55 58.696 129.822 58.472C130.094 58.2427 130.417 58.0667 130.79 57.944C131.169 57.8213 131.582 57.76 132.03 57.76C132.382 57.76 132.71 57.8 133.014 57.88C133.318 57.9547 133.595 58.0667 133.846 58.216H136.046ZM144.183 57.896V66H143.335C143.132 66 143.004 65.9013 142.951 65.704L142.839 64.832C142.487 65.2213 142.092 65.536 141.655 65.776C141.217 66.0107 140.716 66.128 140.151 66.128C139.708 66.128 139.316 66.056 138.975 65.912C138.639 65.7627 138.356 65.5547 138.127 65.288C137.897 65.0213 137.724 64.6987 137.607 64.32C137.495 63.9413 137.439 63.5227 137.439 63.064V57.896H138.863V63.064C138.863 63.6773 139.001 64.152 139.279 64.488C139.561 64.824 139.991 64.992 140.567 64.992C140.988 64.992 141.38 64.8933 141.743 64.696C142.111 64.4933 142.449 64.216 142.759 63.864V57.896H144.183ZM151.865 61.064C151.865 60.7333 151.817 60.432 151.721 60.16C151.63 59.8827 151.494 59.6453 151.313 59.448C151.137 59.2453 150.921 59.0907 150.665 58.984C150.409 58.872 150.118 58.816 149.793 58.816C149.11 58.816 148.569 59.016 148.169 59.416C147.774 59.8107 147.529 60.36 147.433 61.064H151.865ZM153.017 64.864C152.841 65.0773 152.63 65.264 152.385 65.424C152.139 65.5787 151.875 65.7067 151.593 65.808C151.315 65.9093 151.027 65.984 150.729 66.032C150.43 66.0853 150.134 66.112 149.841 66.112C149.281 66.112 148.763 66.0187 148.289 65.832C147.819 65.64 147.411 65.3627 147.065 65C146.723 64.632 146.457 64.1787 146.265 63.64C146.073 63.1013 145.977 62.4827 145.977 61.784C145.977 61.2187 146.062 60.6907 146.233 60.2C146.409 59.7093 146.659 59.2853 146.985 58.928C147.31 58.5653 147.707 58.2827 148.177 58.08C148.646 57.872 149.174 57.768 149.761 57.768C150.246 57.768 150.694 57.8507 151.105 58.016C151.521 58.176 151.878 58.4107 152.177 58.72C152.481 59.024 152.718 59.4027 152.889 59.856C153.059 60.304 153.145 60.816 153.145 61.392C153.145 61.616 153.121 61.7653 153.073 61.84C153.025 61.9147 152.934 61.952 152.801 61.952H147.385C147.401 62.464 147.47 62.9093 147.593 63.288C147.721 63.6667 147.897 63.984 148.121 64.24C148.345 64.4907 148.611 64.68 148.921 64.808C149.23 64.9307 149.577 64.992 149.961 64.992C150.318 64.992 150.625 64.952 150.881 64.872C151.142 64.7867 151.366 64.696 151.553 64.6C151.739 64.504 151.894 64.416 152.017 64.336C152.145 64.2507 152.254 64.208 152.345 64.208C152.462 64.208 152.553 64.2533 152.617 64.344L153.017 64.864ZM161.475 66.128C160.835 66.128 160.342 65.9493 159.995 65.592C159.654 65.2347 159.483 64.72 159.483 64.048V59.088H158.507C158.422 59.088 158.35 59.064 158.291 59.016C158.233 58.9627 158.203 58.8827 158.203 58.776V58.208L159.531 58.04L159.859 55.536C159.875 55.456 159.91 55.392 159.963 55.344C160.022 55.2907 160.097 55.264 160.187 55.264H160.907V58.056H163.251V59.088H160.907V63.952C160.907 64.2933 160.99 64.5467 161.155 64.712C161.321 64.8773 161.534 64.96 161.795 64.96C161.945 64.96 162.073 64.9413 162.179 64.904C162.291 64.8613 162.387 64.816 162.467 64.768C162.547 64.72 162.614 64.6773 162.667 64.64C162.726 64.5973 162.777 64.576 162.819 64.576C162.894 64.576 162.961 64.6213 163.019 64.712L163.435 65.392C163.19 65.6213 162.894 65.8027 162.547 65.936C162.201 66.064 161.843 66.128 161.475 66.128ZM169.114 62.352C168.458 62.3733 167.898 62.4267 167.434 62.512C166.975 62.592 166.599 62.6987 166.306 62.832C166.018 62.9653 165.807 63.1227 165.674 63.304C165.546 63.4853 165.482 63.688 165.482 63.912C165.482 64.1253 165.516 64.3093 165.586 64.464C165.655 64.6187 165.748 64.7467 165.866 64.848C165.988 64.944 166.13 65.016 166.29 65.064C166.455 65.1067 166.631 65.128 166.818 65.128C167.068 65.128 167.298 65.104 167.506 65.056C167.714 65.0027 167.908 64.928 168.09 64.832C168.276 64.736 168.452 64.6213 168.618 64.488C168.788 64.3547 168.954 64.2027 169.114 64.032V62.352ZM164.514 59.04C164.962 58.608 165.444 58.2853 165.962 58.072C166.479 57.8587 167.052 57.752 167.682 57.752C168.135 57.752 168.538 57.8267 168.89 57.976C169.242 58.1253 169.538 58.3333 169.778 58.6C170.018 58.8667 170.199 59.1893 170.322 59.568C170.444 59.9467 170.506 60.3627 170.506 60.816V66H169.874C169.735 66 169.628 65.9787 169.554 65.936C169.479 65.888 169.42 65.7973 169.378 65.664L169.218 64.896C169.004 65.0933 168.796 65.2693 168.594 65.424C168.391 65.5733 168.178 65.7013 167.954 65.808C167.73 65.9093 167.49 65.9867 167.234 66.04C166.983 66.0987 166.703 66.128 166.394 66.128C166.079 66.128 165.783 66.0853 165.506 66C165.228 65.9093 164.986 65.776 164.778 65.6C164.575 65.424 164.412 65.2027 164.29 64.936C164.172 64.664 164.114 64.344 164.114 63.976C164.114 63.656 164.202 63.3493 164.378 63.056C164.554 62.7573 164.839 62.4933 165.234 62.264C165.628 62.0347 166.143 61.848 166.778 61.704C167.412 61.5547 168.191 61.4693 169.114 61.448V60.816C169.114 60.1867 168.978 59.712 168.706 59.392C168.434 59.0667 168.036 58.904 167.514 58.904C167.162 58.904 166.866 58.9493 166.626 59.04C166.391 59.1253 166.186 59.224 166.01 59.336C165.839 59.4427 165.69 59.5413 165.562 59.632C165.439 59.7173 165.316 59.76 165.194 59.76C165.098 59.76 165.015 59.736 164.946 59.688C164.876 59.6347 164.818 59.5707 164.77 59.496L164.514 59.04ZM174.107 64.048C174.368 64.4 174.654 64.648 174.963 64.792C175.278 64.936 175.622 65.008 175.995 65.008C176.758 65.008 177.342 64.7387 177.747 64.2C178.152 63.6613 178.355 62.8587 178.355 61.792C178.355 60.8 178.174 60.072 177.811 59.608C177.454 59.1387 176.942 58.904 176.275 58.904C175.811 58.904 175.406 59.0107 175.059 59.224C174.718 59.4373 174.4 59.7387 174.107 60.128V64.048ZM174.107 59.064C174.448 58.6693 174.832 58.3547 175.259 58.12C175.691 57.8853 176.187 57.768 176.747 57.768C177.222 57.768 177.648 57.8587 178.027 58.04C178.411 58.2213 178.736 58.4853 179.003 58.832C179.27 59.1733 179.472 59.5893 179.611 60.08C179.755 60.5707 179.827 61.1227 179.827 61.736C179.827 62.392 179.747 62.9893 179.587 63.528C179.427 64.0667 179.195 64.528 178.891 64.912C178.592 65.2907 178.227 65.5867 177.795 65.8C177.363 66.008 176.878 66.112 176.339 66.112C175.806 66.112 175.355 66.0133 174.987 65.816C174.624 65.6133 174.307 65.328 174.035 64.96L173.963 65.696C173.92 65.8987 173.798 66 173.595 66H172.675V54.216H174.107V59.064ZM183.1 54.216V66H181.676V54.216H183.1ZM190.833 61.064C190.833 60.7333 190.785 60.432 190.689 60.16C190.599 59.8827 190.463 59.6453 190.281 59.448C190.105 59.2453 189.889 59.0907 189.633 58.984C189.377 58.872 189.087 58.816 188.761 58.816C188.079 58.816 187.537 59.016 187.137 59.416C186.743 59.8107 186.497 60.36 186.401 61.064H190.833ZM191.985 64.864C191.809 65.0773 191.599 65.264 191.353 65.424C191.108 65.5787 190.844 65.7067 190.561 65.808C190.284 65.9093 189.996 65.984 189.697 66.032C189.399 66.0853 189.103 66.112 188.809 66.112C188.249 66.112 187.732 66.0187 187.257 65.832C186.788 65.64 186.38 65.3627 186.033 65C185.692 64.632 185.425 64.1787 185.233 63.64C185.041 63.1013 184.945 62.4827 184.945 61.784C184.945 61.2187 185.031 60.6907 185.201 60.2C185.377 59.7093 185.628 59.2853 185.953 58.928C186.279 58.5653 186.676 58.2827 187.145 58.08C187.615 57.872 188.143 57.768 188.729 57.768C189.215 57.768 189.663 57.8507 190.073 58.016C190.489 58.176 190.847 58.4107 191.145 58.72C191.449 59.024 191.687 59.4027 191.857 59.856C192.028 60.304 192.113 60.816 192.113 61.392C192.113 61.616 192.089 61.7653 192.041 61.84C191.993 61.9147 191.903 61.952 191.769 61.952H186.353C186.369 62.464 186.439 62.9093 186.561 63.288C186.689 63.6667 186.865 63.984 187.089 64.24C187.313 64.4907 187.58 64.68 187.889 64.808C188.199 64.9307 188.545 64.992 188.929 64.992C189.287 64.992 189.593 64.952 189.849 64.872C190.111 64.7867 190.335 64.696 190.521 64.6C190.708 64.504 190.863 64.416 190.985 64.336C191.113 64.2507 191.223 64.208 191.313 64.208C191.431 64.208 191.521 64.2533 191.585 64.344L191.985 64.864ZM198.582 59.232C198.518 59.3493 198.42 59.408 198.286 59.408C198.206 59.408 198.116 59.3787 198.014 59.32C197.913 59.2613 197.788 59.1973 197.638 59.128C197.494 59.0533 197.321 58.9867 197.118 58.928C196.916 58.864 196.676 58.832 196.398 58.832C196.158 58.832 195.942 58.864 195.75 58.928C195.558 58.9867 195.393 59.0693 195.254 59.176C195.121 59.2827 195.017 59.408 194.942 59.552C194.873 59.6907 194.838 59.8427 194.838 60.008C194.838 60.216 194.897 60.3893 195.014 60.528C195.137 60.6667 195.297 60.7867 195.494 60.888C195.692 60.9893 195.916 61.08 196.166 61.16C196.417 61.2347 196.673 61.3173 196.934 61.408C197.201 61.4933 197.46 61.5893 197.71 61.696C197.961 61.8027 198.185 61.936 198.382 62.096C198.58 62.256 198.737 62.4533 198.854 62.688C198.977 62.9173 199.038 63.1947 199.038 63.52C199.038 63.8933 198.972 64.24 198.838 64.56C198.705 64.8747 198.508 65.1493 198.246 65.384C197.985 65.6133 197.665 65.7947 197.286 65.928C196.908 66.0613 196.47 66.128 195.974 66.128C195.409 66.128 194.897 66.0373 194.438 65.856C193.98 65.6693 193.59 65.432 193.27 65.144L193.606 64.6C193.649 64.5307 193.7 64.4773 193.758 64.44C193.817 64.4027 193.892 64.384 193.982 64.384C194.078 64.384 194.18 64.4213 194.286 64.496C194.393 64.5707 194.521 64.6533 194.67 64.744C194.825 64.8347 195.012 64.9173 195.23 64.992C195.449 65.0667 195.721 65.104 196.046 65.104C196.324 65.104 196.566 65.0693 196.774 65C196.982 64.9253 197.156 64.8267 197.294 64.704C197.433 64.5813 197.534 64.44 197.598 64.28C197.668 64.12 197.702 63.9493 197.702 63.768C197.702 63.544 197.641 63.36 197.518 63.216C197.401 63.0667 197.244 62.9413 197.046 62.84C196.849 62.7333 196.622 62.6427 196.366 62.568C196.116 62.488 195.857 62.4053 195.59 62.32C195.329 62.2347 195.07 62.1387 194.814 62.032C194.564 61.92 194.34 61.7813 194.142 61.616C193.945 61.4507 193.785 61.248 193.662 61.008C193.545 60.7627 193.486 60.4667 193.486 60.12C193.486 59.8107 193.55 59.5147 193.678 59.232C193.806 58.944 193.993 58.6933 194.238 58.48C194.484 58.2613 194.785 58.088 195.142 57.96C195.5 57.832 195.908 57.768 196.366 57.768C196.9 57.768 197.377 57.8533 197.798 58.024C198.225 58.1893 198.593 58.4187 198.902 58.712L198.582 59.232ZM206.382 57.896V66H204.958V57.896H206.382ZM206.686 55.352C206.686 55.4907 206.657 55.6213 206.598 55.744C206.545 55.8613 206.47 55.968 206.374 56.064C206.283 56.1547 206.174 56.2267 206.046 56.28C205.923 56.3333 205.793 56.36 205.654 56.36C205.515 56.36 205.385 56.3333 205.262 56.28C205.145 56.2267 205.041 56.1547 204.95 56.064C204.859 55.968 204.787 55.8613 204.734 55.744C204.681 55.6213 204.654 55.4907 204.654 55.352C204.654 55.2133 204.681 55.0827 204.734 54.96C204.787 54.832 204.859 54.7227 204.95 54.632C205.041 54.536 205.145 54.4613 205.262 54.408C205.385 54.3547 205.515 54.328 205.654 54.328C205.793 54.328 205.923 54.3547 206.046 54.408C206.174 54.4613 206.283 54.536 206.374 54.632C206.47 54.7227 206.545 54.832 206.598 54.96C206.657 55.0827 206.686 55.2133 206.686 55.352ZM210.066 59.072C210.242 58.8747 210.428 58.696 210.626 58.536C210.823 58.376 211.031 58.24 211.25 58.128C211.474 58.0107 211.708 57.9227 211.954 57.864C212.204 57.8 212.474 57.768 212.762 57.768C213.204 57.768 213.594 57.8427 213.93 57.992C214.271 58.136 214.554 58.344 214.778 58.616C215.007 58.8827 215.18 59.2053 215.298 59.584C215.415 59.9627 215.474 60.3813 215.474 60.84V66H214.042V60.84C214.042 60.2267 213.9 59.752 213.618 59.416C213.34 59.0747 212.916 58.904 212.346 58.904C211.924 58.904 211.53 59.0053 211.162 59.208C210.799 59.4107 210.463 59.6853 210.154 60.032V66H208.722V57.896H209.578C209.78 57.896 209.906 57.9947 209.954 58.192L210.066 59.072ZM223.284 59.336C223.241 59.3947 223.198 59.44 223.156 59.472C223.113 59.504 223.054 59.52 222.98 59.52C222.9 59.52 222.812 59.488 222.716 59.424C222.62 59.3547 222.5 59.28 222.356 59.2C222.217 59.12 222.044 59.048 221.836 58.984C221.633 58.9147 221.382 58.88 221.084 58.88C220.684 58.88 220.332 58.952 220.028 59.096C219.724 59.2347 219.468 59.4373 219.26 59.704C219.057 59.9707 218.902 60.2933 218.796 60.672C218.694 61.0507 218.644 61.4747 218.644 61.944C218.644 62.4347 218.7 62.872 218.812 63.256C218.924 63.6347 219.081 63.9547 219.284 64.216C219.492 64.472 219.74 64.6693 220.028 64.808C220.321 64.9413 220.649 65.008 221.012 65.008C221.358 65.008 221.644 64.968 221.868 64.888C222.092 64.8027 222.276 64.7093 222.42 64.608C222.569 64.5067 222.692 64.416 222.788 64.336C222.889 64.2507 222.988 64.208 223.084 64.208C223.201 64.208 223.292 64.2533 223.356 64.344L223.756 64.864C223.58 65.0827 223.38 65.2693 223.156 65.424C222.932 65.5787 222.689 65.7093 222.428 65.816C222.172 65.9173 221.902 65.992 221.62 66.04C221.337 66.088 221.049 66.112 220.756 66.112C220.249 66.112 219.777 66.0187 219.34 65.832C218.908 65.6453 218.532 65.376 218.212 65.024C217.892 64.6667 217.641 64.2293 217.46 63.712C217.278 63.1947 217.188 62.6053 217.188 61.944C217.188 61.3413 217.27 60.784 217.436 60.272C217.606 59.76 217.852 59.32 218.172 58.952C218.497 58.5787 218.894 58.288 219.364 58.08C219.838 57.872 220.382 57.768 220.996 57.768C221.566 57.768 222.068 57.8613 222.5 58.048C222.937 58.2293 223.324 58.488 223.66 58.824L223.284 59.336ZM226.756 54.216V66H225.332V54.216H226.756ZM235.73 57.896V66H234.882C234.679 66 234.551 65.9013 234.498 65.704L234.386 64.832C234.034 65.2213 233.639 65.536 233.202 65.776C232.764 66.0107 232.263 66.128 231.698 66.128C231.255 66.128 230.863 66.056 230.522 65.912C230.186 65.7627 229.903 65.5547 229.674 65.288C229.444 65.0213 229.271 64.6987 229.154 64.32C229.042 63.9413 228.986 63.5227 228.986 63.064V57.896H230.41V63.064C230.41 63.6773 230.548 64.152 230.826 64.488C231.108 64.824 231.538 64.992 232.114 64.992C232.535 64.992 232.927 64.8933 233.29 64.696C233.658 64.4933 233.996 64.216 234.306 63.864V57.896H235.73ZM243.267 59.824C243.001 59.4667 242.713 59.2187 242.403 59.08C242.094 58.936 241.747 58.864 241.363 58.864C240.611 58.864 240.033 59.1333 239.627 59.672C239.222 60.2107 239.019 60.9787 239.019 61.976C239.019 62.504 239.065 62.9573 239.155 63.336C239.246 63.7093 239.379 64.0187 239.555 64.264C239.731 64.504 239.947 64.68 240.203 64.792C240.459 64.904 240.75 64.96 241.075 64.96C241.545 64.96 241.953 64.8533 242.299 64.64C242.651 64.4267 242.974 64.1253 243.267 63.736V59.824ZM244.691 54.216V66H243.843C243.641 66 243.513 65.9013 243.459 65.704L243.331 64.72C242.985 65.136 242.59 65.472 242.147 65.728C241.705 65.984 241.193 66.112 240.611 66.112C240.147 66.112 239.726 66.024 239.347 65.848C238.969 65.6667 238.646 65.4027 238.379 65.056C238.113 64.7093 237.907 64.2773 237.763 63.76C237.619 63.2427 237.547 62.648 237.547 61.976C237.547 61.3787 237.627 60.824 237.787 60.312C237.947 59.7947 238.177 59.3467 238.475 58.968C238.774 58.5893 239.139 58.2933 239.571 58.08C240.009 57.8613 240.499 57.752 241.043 57.752C241.539 57.752 241.963 57.8373 242.315 58.008C242.673 58.1733 242.99 58.4053 243.267 58.704V54.216H244.691ZM248.445 57.896V66H247.021V57.896H248.445ZM248.749 55.352C248.749 55.4907 248.719 55.6213 248.661 55.744C248.607 55.8613 248.533 55.968 248.437 56.064C248.346 56.1547 248.237 56.2267 248.109 56.28C247.986 56.3333 247.855 56.36 247.717 56.36C247.578 56.36 247.447 56.3333 247.325 56.28C247.207 56.2267 247.103 56.1547 247.013 56.064C246.922 55.968 246.85 55.8613 246.797 55.744C246.743 55.6213 246.717 55.4907 246.717 55.352C246.717 55.2133 246.743 55.0827 246.797 54.96C246.85 54.832 246.922 54.7227 247.013 54.632C247.103 54.536 247.207 54.4613 247.325 54.408C247.447 54.3547 247.578 54.328 247.717 54.328C247.855 54.328 247.986 54.3547 248.109 54.408C248.237 54.4613 248.346 54.536 248.437 54.632C248.533 54.7227 248.607 54.832 248.661 54.96C248.719 55.0827 248.749 55.2133 248.749 55.352ZM252.128 59.072C252.304 58.8747 252.491 58.696 252.688 58.536C252.886 58.376 253.094 58.24 253.312 58.128C253.536 58.0107 253.771 57.9227 254.016 57.864C254.267 57.8 254.536 57.768 254.824 57.768C255.267 57.768 255.656 57.8427 255.992 57.992C256.334 58.136 256.616 58.344 256.84 58.616C257.07 58.8827 257.243 59.2053 257.36 59.584C257.478 59.9627 257.536 60.3813 257.536 60.84V66H256.104V60.84C256.104 60.2267 255.963 59.752 255.68 59.416C255.403 59.0747 254.979 58.904 254.408 58.904C253.987 58.904 253.592 59.0053 253.224 59.208C252.862 59.4107 252.526 59.6853 252.216 60.032V66H250.784V57.896H251.64C251.843 57.896 251.968 57.9947 252.016 58.192L252.128 59.072ZM262.53 62.04C262.818 62.04 263.071 62 263.29 61.92C263.509 61.84 263.693 61.728 263.842 61.584C263.991 61.44 264.103 61.2693 264.178 61.072C264.253 60.8693 264.29 60.648 264.29 60.408C264.29 59.912 264.138 59.5173 263.834 59.224C263.535 58.9307 263.101 58.784 262.53 58.784C261.954 58.784 261.514 58.9307 261.21 59.224C260.911 59.5173 260.762 59.912 260.762 60.408C260.762 60.648 260.799 60.8693 260.874 61.072C260.954 61.2693 261.069 61.44 261.218 61.584C261.367 61.728 261.551 61.84 261.77 61.92C261.989 62 262.242 62.04 262.53 62.04ZM265.098 66.44C265.098 66.2427 265.042 66.0827 264.93 65.96C264.818 65.8373 264.666 65.7413 264.474 65.672C264.287 65.6027 264.069 65.5547 263.818 65.528C263.567 65.496 263.301 65.472 263.018 65.456C262.741 65.44 262.458 65.424 262.17 65.408C261.882 65.392 261.605 65.3653 261.338 65.328C261.039 65.4667 260.794 65.6427 260.602 65.856C260.415 66.064 260.322 66.3093 260.322 66.592C260.322 66.7733 260.367 66.9413 260.458 67.096C260.554 67.256 260.698 67.392 260.89 67.504C261.082 67.6213 261.322 67.712 261.61 67.776C261.903 67.8453 262.247 67.88 262.642 67.88C263.026 67.88 263.37 67.8453 263.674 67.776C263.978 67.7067 264.234 67.608 264.442 67.48C264.655 67.352 264.818 67.2 264.93 67.024C265.042 66.848 265.098 66.6533 265.098 66.44ZM266.546 58.216V58.744C266.546 58.92 266.434 59.032 266.21 59.08L265.29 59.2C265.471 59.552 265.562 59.9413 265.562 60.368C265.562 60.7627 265.485 61.1227 265.33 61.448C265.181 61.768 264.973 62.0427 264.706 62.272C264.439 62.5013 264.119 62.6773 263.746 62.8C263.373 62.9227 262.967 62.984 262.53 62.984C262.151 62.984 261.794 62.9387 261.458 62.848C261.287 62.9547 261.157 63.0693 261.066 63.192C260.975 63.3093 260.93 63.4293 260.93 63.552C260.93 63.744 261.007 63.8907 261.162 63.992C261.322 64.088 261.53 64.1573 261.786 64.2C262.042 64.2427 262.333 64.2693 262.658 64.28C262.989 64.2907 263.325 64.3093 263.666 64.336C264.013 64.3573 264.349 64.3973 264.674 64.456C265.005 64.5147 265.298 64.6107 265.554 64.744C265.81 64.8773 266.015 65.0613 266.17 65.296C266.33 65.5307 266.41 65.8347 266.41 66.208C266.41 66.5547 266.322 66.8907 266.146 67.216C265.975 67.5413 265.727 67.8293 265.402 68.08C265.077 68.336 264.677 68.5387 264.202 68.688C263.733 68.8427 263.202 68.92 262.61 68.92C262.018 68.92 261.501 68.8613 261.058 68.744C260.615 68.6267 260.247 68.4693 259.954 68.272C259.661 68.0747 259.439 67.8453 259.29 67.584C259.146 67.328 259.074 67.0587 259.074 66.776C259.074 66.376 259.199 66.0373 259.45 65.76C259.701 65.4827 260.045 65.2613 260.482 65.096C260.242 64.9893 260.05 64.848 259.906 64.672C259.767 64.4907 259.698 64.248 259.698 63.944C259.698 63.8267 259.719 63.7067 259.762 63.584C259.805 63.456 259.869 63.3307 259.954 63.208C260.045 63.08 260.154 62.96 260.282 62.848C260.41 62.736 260.559 62.6373 260.73 62.552C260.33 62.328 260.018 62.032 259.794 61.664C259.57 61.2907 259.458 60.8587 259.458 60.368C259.458 59.9733 259.533 59.616 259.682 59.296C259.837 58.9707 260.05 58.696 260.322 58.472C260.594 58.2427 260.917 58.0667 261.29 57.944C261.669 57.8213 262.082 57.76 262.53 57.76C262.882 57.76 263.21 57.8 263.514 57.88C263.818 57.9547 264.095 58.0667 264.346 58.216H266.546ZM276.504 62.352C275.848 62.3733 275.288 62.4267 274.824 62.512C274.366 62.592 273.99 62.6987 273.696 62.832C273.408 62.9653 273.198 63.1227 273.064 63.304C272.936 63.4853 272.872 63.688 272.872 63.912C272.872 64.1253 272.907 64.3093 272.976 64.464C273.046 64.6187 273.139 64.7467 273.256 64.848C273.379 64.944 273.52 65.016 273.68 65.064C273.846 65.1067 274.022 65.128 274.208 65.128C274.459 65.128 274.688 65.104 274.896 65.056C275.104 65.0027 275.299 64.928 275.48 64.832C275.667 64.736 275.843 64.6213 276.008 64.488C276.179 64.3547 276.344 64.2027 276.504 64.032V62.352ZM271.904 59.04C272.352 58.608 272.835 58.2853 273.352 58.072C273.87 57.8587 274.443 57.752 275.072 57.752C275.526 57.752 275.928 57.8267 276.28 57.976C276.632 58.1253 276.928 58.3333 277.168 58.6C277.408 58.8667 277.59 59.1893 277.712 59.568C277.835 59.9467 277.896 60.3627 277.896 60.816V66H277.264C277.126 66 277.019 65.9787 276.944 65.936C276.87 65.888 276.811 65.7973 276.768 65.664L276.608 64.896C276.395 65.0933 276.187 65.2693 275.984 65.424C275.782 65.5733 275.568 65.7013 275.344 65.808C275.12 65.9093 274.88 65.9867 274.624 66.04C274.374 66.0987 274.094 66.128 273.784 66.128C273.47 66.128 273.174 66.0853 272.896 66C272.619 65.9093 272.376 65.776 272.168 65.6C271.966 65.424 271.803 65.2027 271.68 64.936C271.563 64.664 271.504 64.344 271.504 63.976C271.504 63.656 271.592 63.3493 271.768 63.056C271.944 62.7573 272.23 62.4933 272.624 62.264C273.019 62.0347 273.534 61.848 274.168 61.704C274.803 61.5547 275.582 61.4693 276.504 61.448V60.816C276.504 60.1867 276.368 59.712 276.096 59.392C275.824 59.0667 275.427 58.904 274.904 58.904C274.552 58.904 274.256 58.9493 274.016 59.04C273.782 59.1253 273.576 59.224 273.4 59.336C273.23 59.4427 273.08 59.5413 272.952 59.632C272.83 59.7173 272.707 59.76 272.584 59.76C272.488 59.76 272.406 59.736 272.336 59.688C272.267 59.6347 272.208 59.5707 272.16 59.496L271.904 59.04ZM281.538 54.216V66H280.113V54.216H281.538ZM285.319 54.216V66H283.895V54.216H285.319ZM3.616 89.128C2.976 89.128 2.48267 88.9493 2.136 88.592C1.79467 88.2347 1.624 87.72 1.624 87.048V82.088H0.648C0.562667 82.088 0.490667 82.064 0.432 82.016C0.373333 81.9627 0.344 81.8827 0.344 81.776V81.208L1.672 81.04L2 78.536C2.016 78.456 2.05067 78.392 2.104 78.344C2.16267 78.2907 2.23733 78.264 2.328 78.264H3.048V81.056H5.392V82.088H3.048V86.952C3.048 87.2933 3.13067 87.5467 3.296 87.712C3.46133 87.8773 3.67467 87.96 3.936 87.96C4.08533 87.96 4.21333 87.9413 4.32 87.904C4.432 87.8613 4.528 87.816 4.608 87.768C4.688 87.72 4.75467 87.6773 4.808 87.64C4.86667 87.5973 4.91733 87.576 4.96 87.576C5.03467 87.576 5.10133 87.6213 5.16 87.712L5.576 88.392C5.33067 88.6213 5.03467 88.8027 4.688 88.936C4.34133 89.064 3.984 89.128 3.616 89.128ZM8.29438 81.976C8.64104 81.608 9.02504 81.3147 9.44638 81.096C9.86771 80.8773 10.353 80.768 10.9024 80.768C11.345 80.768 11.7344 80.8427 12.0704 80.992C12.4117 81.136 12.6944 81.344 12.9184 81.616C13.1477 81.8827 13.321 82.2053 13.4384 82.584C13.5557 82.9627 13.6144 83.3813 13.6144 83.84V89H12.1824V83.84C12.1824 83.2267 12.041 82.752 11.7584 82.416C11.481 82.0747 11.057 81.904 10.4864 81.904C10.065 81.904 9.67038 82.0053 9.30238 82.208C8.93971 82.4107 8.60371 82.6853 8.29438 83.032V89H6.86238V77.216H8.29438V81.976ZM21.2083 84.064C21.2083 83.7333 21.1603 83.432 21.0643 83.16C20.9736 82.8827 20.8376 82.6453 20.6563 82.448C20.4803 82.2453 20.2643 82.0907 20.0083 81.984C19.7523 81.872 19.4616 81.816 19.1363 81.816C18.4536 81.816 17.9123 82.016 17.5123 82.416C17.1176 82.8107 16.8723 83.36 16.7763 84.064H21.2083ZM22.3603 87.864C22.1843 88.0773 21.9736 88.264 21.7283 88.424C21.4829 88.5787 21.2189 88.7067 20.9363 88.808C20.6589 88.9093 20.3709 88.984 20.0723 89.032C19.7736 89.0853 19.4776 89.112 19.1843 89.112C18.6243 89.112 18.1069 89.0187 17.6323 88.832C17.1629 88.64 16.7549 88.3627 16.4083 88C16.0669 87.632 15.8003 87.1787 15.6083 86.64C15.4163 86.1013 15.3203 85.4827 15.3203 84.784C15.3203 84.2187 15.4056 83.6907 15.5763 83.2C15.7523 82.7093 16.0029 82.2853 16.3283 81.928C16.6536 81.5653 17.0509 81.2827 17.5203 81.08C17.9896 80.872 18.5176 80.768 19.1043 80.768C19.5896 80.768 20.0376 80.8507 20.4483 81.016C20.8643 81.176 21.2216 81.4107 21.5203 81.72C21.8243 82.024 22.0616 82.4027 22.2323 82.856C22.4029 83.304 22.4883 83.816 22.4883 84.392C22.4883 84.616 22.4643 84.7653 22.4163 84.84C22.3683 84.9147 22.2776 84.952 22.1443 84.952H16.7283C16.7443 85.464 16.8136 85.9093 16.9363 86.288C17.0643 86.6667 17.2403 86.984 17.4643 87.24C17.6883 87.4907 17.9549 87.68 18.2643 87.808C18.5736 87.9307 18.9203 87.992 19.3043 87.992C19.6616 87.992 19.9683 87.952 20.2243 87.872C20.4856 87.7867 20.7096 87.696 20.8963 87.6C21.0829 87.504 21.2376 87.416 21.3603 87.336C21.4883 87.2507 21.5976 87.208 21.6883 87.208C21.8056 87.208 21.8963 87.2533 21.9603 87.344L22.3603 87.864ZM33.6111 82.824C33.3445 82.4667 33.0565 82.2187 32.7471 82.08C32.4378 81.936 32.0911 81.864 31.7071 81.864C30.9551 81.864 30.3765 82.1333 29.9711 82.672C29.5658 83.2107 29.3631 83.9787 29.3631 84.976C29.3631 85.504 29.4085 85.9573 29.4991 86.336C29.5898 86.7093 29.7231 87.0187 29.8991 87.264C30.0751 87.504 30.2911 87.68 30.5471 87.792C30.8031 87.904 31.0938 87.96 31.4191 87.96C31.8885 87.96 32.2965 87.8533 32.6431 87.64C32.9951 87.4267 33.3178 87.1253 33.6111 86.736V82.824ZM35.0351 77.216V89H34.1871C33.9845 89 33.8565 88.9013 33.8031 88.704L33.6751 87.72C33.3285 88.136 32.9338 88.472 32.4911 88.728C32.0485 88.984 31.5365 89.112 30.9551 89.112C30.4911 89.112 30.0698 89.024 29.6911 88.848C29.3125 88.6667 28.9898 88.4027 28.7231 88.056C28.4565 87.7093 28.2511 87.2773 28.1071 86.76C27.9631 86.2427 27.8911 85.648 27.8911 84.976C27.8911 84.3787 27.9711 83.824 28.1311 83.312C28.2911 82.7947 28.5205 82.3467 28.8191 81.968C29.1178 81.5893 29.4831 81.2933 29.9151 81.08C30.3525 80.8613 30.8431 80.752 31.3871 80.752C31.8831 80.752 32.3071 80.8373 32.6591 81.008C33.0165 81.1733 33.3338 81.4053 33.6111 81.704V77.216H35.0351ZM40.7003 80.768C41.2923 80.768 41.8256 80.8667 42.3003 81.064C42.7749 81.2613 43.1803 81.5413 43.5163 81.904C43.8523 82.2667 44.1083 82.7067 44.2843 83.224C44.4656 83.736 44.5563 84.3093 44.5563 84.944C44.5563 85.584 44.4656 86.16 44.2843 86.672C44.1083 87.184 43.8523 87.6213 43.5163 87.984C43.1803 88.3467 42.7749 88.6267 42.3003 88.824C41.8256 89.016 41.2923 89.112 40.7003 89.112C40.1029 89.112 39.5643 89.016 39.0843 88.824C38.6096 88.6267 38.2043 88.3467 37.8683 87.984C37.5323 87.6213 37.2736 87.184 37.0923 86.672C36.9163 86.16 36.8283 85.584 36.8283 84.944C36.8283 84.3093 36.9163 83.736 37.0923 83.224C37.2736 82.7067 37.5323 82.2667 37.8683 81.904C38.2043 81.5413 38.6096 81.2613 39.0843 81.064C39.5643 80.8667 40.1029 80.768 40.7003 80.768ZM40.7003 88C41.5003 88 42.0976 87.7333 42.4923 87.2C42.8869 86.6613 43.0843 85.912 43.0843 84.952C43.0843 83.9867 42.8869 83.2347 42.4923 82.696C42.0976 82.1573 41.5003 81.888 40.7003 81.888C40.2949 81.888 39.9403 81.9573 39.6363 82.096C39.3376 82.2347 39.0869 82.4347 38.8843 82.696C38.6869 82.9573 38.5376 83.28 38.4363 83.664C38.3403 84.0427 38.2923 84.472 38.2923 84.952C38.2923 85.912 38.4896 86.6613 38.8843 87.2C39.2843 87.7333 39.8896 88 40.7003 88ZM46.3624 89V80.896H47.2184C47.421 80.896 47.5464 80.9947 47.5944 81.192L47.6984 82.024C47.997 81.656 48.333 81.3547 48.7064 81.12C49.0797 80.8853 49.5117 80.768 50.0024 80.768C50.5464 80.768 50.9864 80.92 51.3224 81.224C51.6637 81.528 51.909 81.9387 52.0584 82.456C52.1757 82.1627 52.325 81.9093 52.5064 81.696C52.693 81.4827 52.901 81.3067 53.1304 81.168C53.3597 81.0293 53.6024 80.928 53.8584 80.864C54.1197 80.8 54.3837 80.768 54.6504 80.768C55.077 80.768 55.4557 80.8373 55.7864 80.976C56.1224 81.1093 56.405 81.3067 56.6344 81.568C56.869 81.8293 57.0477 82.152 57.1704 82.536C57.293 82.9147 57.3544 83.3493 57.3544 83.84V89H55.9224V83.84C55.9224 83.2053 55.7837 82.7253 55.5064 82.4C55.229 82.0693 54.829 81.904 54.3064 81.904C54.0717 81.904 53.8477 81.9467 53.6344 82.032C53.4264 82.112 53.2424 82.232 53.0824 82.392C52.9224 82.552 52.7944 82.7547 52.6984 83C52.6077 83.24 52.5624 83.52 52.5624 83.84V89H51.1304V83.84C51.1304 83.1893 50.9997 82.704 50.7384 82.384C50.477 82.064 50.0957 81.904 49.5944 81.904C49.2424 81.904 48.917 82 48.6184 82.192C48.3197 82.3787 48.045 82.6347 47.7944 82.96V89H46.3624ZM64.9426 84.064C64.9426 83.7333 64.8946 83.432 64.7986 83.16C64.708 82.8827 64.572 82.6453 64.3906 82.448C64.2146 82.2453 63.9986 82.0907 63.7426 81.984C63.4866 81.872 63.196 81.816 62.8706 81.816C62.188 81.816 61.6466 82.016 61.2466 82.416C60.852 82.8107 60.6066 83.36 60.5106 84.064H64.9426ZM66.0946 87.864C65.9186 88.0773 65.708 88.264 65.4626 88.424C65.2173 88.5787 64.9533 88.7067 64.6706 88.808C64.3933 88.9093 64.1053 88.984 63.8066 89.032C63.508 89.0853 63.212 89.112 62.9186 89.112C62.3586 89.112 61.8413 89.0187 61.3666 88.832C60.8973 88.64 60.4893 88.3627 60.1426 88C59.8013 87.632 59.5346 87.1787 59.3426 86.64C59.1506 86.1013 59.0546 85.4827 59.0546 84.784C59.0546 84.2187 59.14 83.6907 59.3106 83.2C59.4866 82.7093 59.7373 82.2853 60.0626 81.928C60.388 81.5653 60.7853 81.2827 61.2546 81.08C61.724 80.872 62.252 80.768 62.8386 80.768C63.324 80.768 63.772 80.8507 64.1826 81.016C64.5986 81.176 64.956 81.4107 65.2546 81.72C65.5586 82.024 65.796 82.4027 65.9666 82.856C66.1373 83.304 66.2226 83.816 66.2226 84.392C66.2226 84.616 66.1986 84.7653 66.1506 84.84C66.1026 84.9147 66.012 84.952 65.8786 84.952H60.4626C60.4786 85.464 60.548 85.9093 60.6706 86.288C60.7986 86.6667 60.9746 86.984 61.1986 87.24C61.4226 87.4907 61.6893 87.68 61.9986 87.808C62.308 87.9307 62.6546 87.992 63.0386 87.992C63.396 87.992 63.7026 87.952 63.9586 87.872C64.22 87.7867 64.444 87.696 64.6306 87.6C64.8173 87.504 64.972 87.416 65.0946 87.336C65.2226 87.2507 65.332 87.208 65.4226 87.208C65.54 87.208 65.6306 87.2533 65.6946 87.344L66.0946 87.864ZM72.6918 82.232C72.6278 82.3493 72.5291 82.408 72.3958 82.408C72.3158 82.408 72.2251 82.3787 72.1238 82.32C72.0224 82.2613 71.8971 82.1973 71.7478 82.128C71.6038 82.0533 71.4304 81.9867 71.2278 81.928C71.0251 81.864 70.7851 81.832 70.5078 81.832C70.2678 81.832 70.0518 81.864 69.8598 81.928C69.6678 81.9867 69.5024 82.0693 69.3638 82.176C69.2304 82.2827 69.1264 82.408 69.0518 82.552C68.9824 82.6907 68.9478 82.8427 68.9478 83.008C68.9478 83.216 69.0064 83.3893 69.1238 83.528C69.2464 83.6667 69.4064 83.7867 69.6038 83.888C69.8011 83.9893 70.0251 84.08 70.2758 84.16C70.5264 84.2347 70.7824 84.3173 71.0438 84.408C71.3104 84.4933 71.5691 84.5893 71.8198 84.696C72.0704 84.8027 72.2944 84.936 72.4918 85.096C72.6891 85.256 72.8464 85.4533 72.9638 85.688C73.0864 85.9173 73.1478 86.1947 73.1478 86.52C73.1478 86.8933 73.0811 87.24 72.9478 87.56C72.8144 87.8747 72.6171 88.1493 72.3558 88.384C72.0944 88.6133 71.7744 88.7947 71.3958 88.928C71.0171 89.0613 70.5798 89.128 70.0838 89.128C69.5184 89.128 69.0064 89.0373 68.5478 88.856C68.0891 88.6693 67.6998 88.432 67.3798 88.144L67.7158 87.6C67.7584 87.5307 67.8091 87.4773 67.8678 87.44C67.9264 87.4027 68.0011 87.384 68.0918 87.384C68.1878 87.384 68.2891 87.4213 68.3958 87.496C68.5024 87.5707 68.6304 87.6533 68.7798 87.744C68.9344 87.8347 69.1211 87.9173 69.3398 87.992C69.5584 88.0667 69.8304 88.104 70.1558 88.104C70.4331 88.104 70.6758 88.0693 70.8837 88C71.0918 87.9253 71.2651 87.8267 71.4038 87.704C71.5424 87.5813 71.6438 87.44 71.7078 87.28C71.7771 87.12 71.8118 86.9493 71.8118 86.768C71.8118 86.544 71.7504 86.36 71.6278 86.216C71.5104 86.0667 71.3531 85.9413 71.1558 85.84C70.9584 85.7333 70.7318 85.6427 70.4758 85.568C70.2251 85.488 69.9664 85.4053 69.6998 85.32C69.4384 85.2347 69.1798 85.1387 68.9238 85.032C68.6731 84.92 68.4491 84.7813 68.2518 84.616C68.0544 84.4507 67.8944 84.248 67.7718 84.008C67.6544 83.7627 67.5958 83.4667 67.5958 83.12C67.5958 82.8107 67.6598 82.5147 67.7878 82.232C67.9158 81.944 68.1024 81.6933 68.3478 81.48C68.5931 81.2613 68.8944 81.088 69.2518 80.96C69.6091 80.832 70.0171 80.768 70.4758 80.768C71.0091 80.768 71.4864 80.8533 71.9078 81.024C72.3344 81.1893 72.7024 81.4187 73.0118 81.712L72.6918 82.232ZM82.4136 89H80.9896V82.088H76.8136V86.952C76.8136 87.2933 76.8963 87.5467 77.0616 87.712C77.227 87.8773 77.4403 87.96 77.7016 87.96C77.851 87.96 77.979 87.9413 78.0856 87.904C78.1976 87.8613 78.2936 87.816 78.3736 87.768C78.4536 87.72 78.5203 87.6773 78.5736 87.64C78.6323 87.5973 78.683 87.576 78.7256 87.576C78.8003 87.576 78.867 87.6213 78.9256 87.712L79.3416 88.392C79.0963 88.6213 78.8003 88.8027 78.4536 88.936C78.107 89.064 77.7496 89.128 77.3816 89.128C76.7416 89.128 76.2483 88.9493 75.9016 88.592C75.5603 88.2347 75.3896 87.72 75.3896 87.048V82.088H74.4136C74.3283 82.088 74.2563 82.064 74.1976 82.016C74.139 81.9627 74.1096 81.8827 74.1096 81.776V81.208L75.4376 81.032L75.7656 78.536C75.7816 78.456 75.8163 78.392 75.8696 78.344C75.9283 78.2907 76.003 78.264 76.0936 78.264H76.8136V81.056H82.4136V89ZM82.7656 78.296C82.7656 78.4347 82.7363 78.5653 82.6776 78.688C82.6243 78.8053 82.5496 78.9093 82.4536 79C82.363 79.0907 82.2563 79.1627 82.1336 79.216C82.011 79.2693 81.8803 79.296 81.7416 79.296C81.603 79.296 81.4723 79.2693 81.3496 79.216C81.2323 79.1627 81.1283 79.0907 81.0376 79C80.947 78.9093 80.875 78.8053 80.8216 78.688C80.7683 78.5653 80.7416 78.4347 80.7416 78.296C80.7416 78.1573 80.7683 78.0267 80.8216 77.904C80.875 77.776 80.947 77.6667 81.0376 77.576C81.1283 77.48 81.2323 77.4053 81.3496 77.352C81.4723 77.2987 81.603 77.272 81.7416 77.272C81.8803 77.272 82.011 77.2987 82.1336 77.352C82.2563 77.4053 82.363 77.48 82.4536 77.576C82.5496 77.6667 82.6243 77.776 82.6776 77.904C82.7363 78.0267 82.7656 78.1573 82.7656 78.296ZM90.393 82.336C90.3503 82.3947 90.3077 82.44 90.265 82.472C90.2223 82.504 90.1637 82.52 90.089 82.52C90.009 82.52 89.921 82.488 89.825 82.424C89.729 82.3547 89.609 82.28 89.465 82.2C89.3263 82.12 89.153 82.048 88.945 81.984C88.7423 81.9147 88.4917 81.88 88.193 81.88C87.793 81.88 87.441 81.952 87.137 82.096C86.833 82.2347 86.577 82.4373 86.369 82.704C86.1663 82.9707 86.0117 83.2933 85.905 83.672C85.8037 84.0507 85.753 84.4747 85.753 84.944C85.753 85.4347 85.809 85.872 85.921 86.256C86.033 86.6347 86.1903 86.9547 86.393 87.216C86.601 87.472 86.849 87.6693 87.137 87.808C87.4303 87.9413 87.7583 88.008 88.121 88.008C88.4677 88.008 88.753 87.968 88.977 87.888C89.201 87.8027 89.385 87.7093 89.529 87.608C89.6783 87.5067 89.801 87.416 89.897 87.336C89.9983 87.2507 90.097 87.208 90.193 87.208C90.3103 87.208 90.401 87.2533 90.465 87.344L90.865 87.864C90.689 88.0827 90.489 88.2693 90.265 88.424C90.041 88.5787 89.7983 88.7093 89.537 88.816C89.281 88.9173 89.0117 88.992 88.729 89.04C88.4463 89.088 88.1583 89.112 87.865 89.112C87.3583 89.112 86.8863 89.0187 86.449 88.832C86.017 88.6453 85.641 88.376 85.321 88.024C85.001 87.6667 84.7503 87.2293 84.569 86.712C84.3877 86.1947 84.297 85.6053 84.297 84.944C84.297 84.3413 84.3797 83.784 84.545 83.272C84.7157 82.76 84.961 82.32 85.281 81.952C85.6063 81.5787 86.0037 81.288 86.473 81.08C86.9477 80.872 87.4917 80.768 88.105 80.768C88.6757 80.768 89.177 80.8613 89.609 81.048C90.0463 81.2293 90.433 81.488 90.769 81.824L90.393 82.336ZM92.3056 90.936C92.263 90.8987 92.2336 90.864 92.2176 90.832C92.2016 90.8 92.1936 90.76 92.1936 90.712C92.1936 90.6747 92.2043 90.6373 92.2256 90.6C92.2523 90.5627 92.2816 90.528 92.3136 90.496C92.367 90.4373 92.4336 90.36 92.5136 90.264C92.599 90.168 92.6843 90.0533 92.7696 89.92C92.855 89.792 92.9323 89.648 93.0016 89.488C93.0763 89.3333 93.1296 89.168 93.1616 88.992C93.1456 88.9973 93.127 89 93.1056 89C93.0896 89 93.0736 89 93.0576 89C92.7803 89 92.5536 88.9093 92.3776 88.728C92.207 88.5413 92.1216 88.304 92.1216 88.016C92.1216 87.7653 92.207 87.552 92.3776 87.376C92.5536 87.2 92.7856 87.112 93.0736 87.112C93.2336 87.112 93.375 87.1413 93.4976 87.2C93.6203 87.2587 93.7216 87.3413 93.8016 87.448C93.887 87.5493 93.951 87.6693 93.9936 87.808C94.0363 87.9413 94.0576 88.088 94.0576 88.248C94.0576 88.488 94.023 88.7387 93.9536 89C93.8896 89.256 93.791 89.5093 93.6576 89.76C93.5296 90.016 93.3723 90.264 93.1856 90.504C92.999 90.744 92.7856 90.9653 92.5456 91.168L92.3056 90.936ZM107.52 87.736L107.512 89H100.448V77.536H107.512V78.8H102V82.608H106.464V83.824H102V87.736H107.52ZM115.667 80.896V89H114.819C114.616 89 114.488 88.9013 114.435 88.704L114.323 87.832C113.971 88.2213 113.576 88.536 113.139 88.776C112.702 89.0107 112.2 89.128 111.635 89.128C111.192 89.128 110.8 89.056 110.459 88.912C110.123 88.7627 109.84 88.5547 109.611 88.288C109.382 88.0213 109.208 87.6987 109.091 87.32C108.979 86.9413 108.923 86.5227 108.923 86.064V80.896H110.347V86.064C110.347 86.6773 110.486 87.152 110.763 87.488C111.046 87.824 111.475 87.992 112.051 87.992C112.472 87.992 112.864 87.8933 113.227 87.696C113.595 87.4933 113.934 87.216 114.243 86.864V80.896H115.667ZM119.277 82.52C119.533 81.9653 119.848 81.5333 120.221 81.224C120.594 80.9093 121.05 80.752 121.589 80.752C121.76 80.752 121.922 80.7707 122.077 80.808C122.237 80.8453 122.378 80.904 122.501 80.984L122.397 82.048C122.365 82.1813 122.285 82.248 122.157 82.248C122.082 82.248 121.973 82.232 121.829 82.2C121.685 82.168 121.522 82.152 121.341 82.152C121.085 82.152 120.856 82.1893 120.653 82.264C120.456 82.3387 120.277 82.4507 120.117 82.6C119.962 82.744 119.821 82.9253 119.693 83.144C119.57 83.3573 119.458 83.6027 119.357 83.88V89H117.925V80.896H118.741C118.896 80.896 119.002 80.9253 119.061 80.984C119.12 81.0427 119.16 81.144 119.181 81.288L119.277 82.52ZM126.841 80.768C127.433 80.768 127.966 80.8667 128.441 81.064C128.916 81.2613 129.321 81.5413 129.657 81.904C129.993 82.2667 130.249 82.7067 130.425 83.224C130.606 83.736 130.697 84.3093 130.697 84.944C130.697 85.584 130.606 86.16 130.425 86.672C130.249 87.184 129.993 87.6213 129.657 87.984C129.321 88.3467 128.916 88.6267 128.441 88.824C127.966 89.016 127.433 89.112 126.841 89.112C126.244 89.112 125.705 89.016 125.225 88.824C124.75 88.6267 124.345 88.3467 124.009 87.984C123.673 87.6213 123.414 87.184 123.233 86.672C123.057 86.16 122.969 85.584 122.969 84.944C122.969 84.3093 123.057 83.736 123.233 83.224C123.414 82.7067 123.673 82.2667 124.009 81.904C124.345 81.5413 124.75 81.2613 125.225 81.064C125.705 80.8667 126.244 80.768 126.841 80.768ZM126.841 88C127.641 88 128.238 87.7333 128.633 87.2C129.028 86.6613 129.225 85.912 129.225 84.952C129.225 83.9867 129.028 83.2347 128.633 82.696C128.238 82.1573 127.641 81.888 126.841 81.888C126.436 81.888 126.081 81.9573 125.777 82.096C125.478 82.2347 125.228 82.4347 125.025 82.696C124.828 82.9573 124.678 83.28 124.577 83.664C124.481 84.0427 124.433 84.472 124.433 84.952C124.433 85.912 124.63 86.6613 125.025 87.2C125.425 87.7333 126.03 88 126.841 88ZM133.935 87.048C134.196 87.4 134.482 87.648 134.791 87.792C135.1 87.936 135.447 88.008 135.831 88.008C136.588 88.008 137.17 87.7387 137.575 87.2C137.98 86.6613 138.183 85.8933 138.183 84.896C138.183 84.368 138.135 83.9147 138.039 83.536C137.948 83.1573 137.815 82.848 137.639 82.608C137.463 82.3627 137.247 82.184 136.991 82.072C136.735 81.96 136.444 81.904 136.119 81.904C135.655 81.904 135.247 82.0107 134.895 82.224C134.548 82.4373 134.228 82.7387 133.935 83.128V87.048ZM133.863 82.152C134.204 81.7307 134.599 81.392 135.047 81.136C135.495 80.88 136.007 80.752 136.583 80.752C137.052 80.752 137.476 80.8427 137.855 81.024C138.234 81.2 138.556 81.464 138.823 81.816C139.09 82.1627 139.295 82.5947 139.439 83.112C139.583 83.6293 139.655 84.224 139.655 84.896C139.655 85.4933 139.575 86.0507 139.415 86.568C139.255 87.08 139.023 87.5253 138.719 87.904C138.42 88.2773 138.052 88.5733 137.615 88.792C137.183 89.0053 136.695 89.112 136.151 89.112C135.655 89.112 135.228 89.0293 134.871 88.864C134.519 88.6933 134.207 88.4587 133.935 88.16V91.744H132.503V80.896H133.359C133.562 80.896 133.687 80.9947 133.735 81.192L133.863 82.152ZM146.896 84.064C146.896 83.7333 146.848 83.432 146.752 83.16C146.661 82.8827 146.525 82.6453 146.344 82.448C146.168 82.2453 145.952 82.0907 145.696 81.984C145.44 81.872 145.149 81.816 144.824 81.816C144.141 81.816 143.6 82.016 143.2 82.416C142.805 82.8107 142.56 83.36 142.464 84.064H146.896ZM148.048 87.864C147.872 88.0773 147.661 88.264 147.416 88.424C147.17 88.5787 146.906 88.7067 146.624 88.808C146.346 88.9093 146.058 88.984 145.76 89.032C145.461 89.0853 145.165 89.112 144.872 89.112C144.312 89.112 143.794 89.0187 143.32 88.832C142.85 88.64 142.442 88.3627 142.096 88C141.754 87.632 141.488 87.1787 141.296 86.64C141.104 86.1013 141.008 85.4827 141.008 84.784C141.008 84.2187 141.093 83.6907 141.264 83.2C141.44 82.7093 141.69 82.2853 142.016 81.928C142.341 81.5653 142.738 81.2827 143.208 81.08C143.677 80.872 144.205 80.768 144.792 80.768C145.277 80.768 145.725 80.8507 146.136 81.016C146.552 81.176 146.909 81.4107 147.208 81.72C147.512 82.024 147.749 82.4027 147.92 82.856C148.09 83.304 148.176 83.816 148.176 84.392C148.176 84.616 148.152 84.7653 148.104 84.84C148.056 84.9147 147.965 84.952 147.832 84.952H142.416C142.432 85.464 142.501 85.9093 142.624 86.288C142.752 86.6667 142.928 86.984 143.152 87.24C143.376 87.4907 143.642 87.68 143.952 87.808C144.261 87.9307 144.608 87.992 144.992 87.992C145.349 87.992 145.656 87.952 145.912 87.872C146.173 87.7867 146.397 87.696 146.584 87.6C146.77 87.504 146.925 87.416 147.048 87.336C147.176 87.2507 147.285 87.208 147.376 87.208C147.493 87.208 147.584 87.2533 147.648 87.344L148.048 87.864ZM154.317 85.352C153.661 85.3733 153.101 85.4267 152.637 85.512C152.178 85.592 151.802 85.6987 151.509 85.832C151.221 85.9653 151.01 86.1227 150.877 86.304C150.749 86.4853 150.685 86.688 150.685 86.912C150.685 87.1253 150.72 87.3093 150.789 87.464C150.858 87.6187 150.952 87.7467 151.069 87.848C151.192 87.944 151.333 88.016 151.493 88.064C151.658 88.1067 151.834 88.128 152.021 88.128C152.272 88.128 152.501 88.104 152.709 88.056C152.917 88.0027 153.112 87.928 153.293 87.832C153.48 87.736 153.656 87.6213 153.821 87.488C153.992 87.3547 154.157 87.2027 154.317 87.032V85.352ZM149.717 82.04C150.165 81.608 150.648 81.2853 151.165 81.072C151.682 80.8587 152.256 80.752 152.885 80.752C153.338 80.752 153.741 80.8267 154.093 80.976C154.445 81.1253 154.741 81.3333 154.981 81.6C155.221 81.8667 155.402 82.1893 155.525 82.568C155.648 82.9467 155.709 83.3627 155.709 83.816V89H155.077C154.938 89 154.832 88.9787 154.757 88.936C154.682 88.888 154.624 88.7973 154.581 88.664L154.421 87.896C154.208 88.0933 154 88.2693 153.797 88.424C153.594 88.5733 153.381 88.7013 153.157 88.808C152.933 88.9093 152.693 88.9867 152.437 89.04C152.186 89.0987 151.906 89.128 151.597 89.128C151.282 89.128 150.986 89.0853 150.709 89C150.432 88.9093 150.189 88.776 149.981 88.6C149.778 88.424 149.616 88.2027 149.493 87.936C149.376 87.664 149.317 87.344 149.317 86.976C149.317 86.656 149.405 86.3493 149.581 86.056C149.757 85.7573 150.042 85.4933 150.437 85.264C150.832 85.0347 151.346 84.848 151.981 84.704C152.616 84.5547 153.394 84.4693 154.317 84.448V83.816C154.317 83.1867 154.181 82.712 153.909 82.392C153.637 82.0667 153.24 81.904 152.717 81.904C152.365 81.904 152.069 81.9493 151.829 82.04C151.594 82.1253 151.389 82.224 151.213 82.336C151.042 82.4427 150.893 82.5413 150.765 82.632C150.642 82.7173 150.52 82.76 150.397 82.76C150.301 82.76 150.218 82.736 150.149 82.688C150.08 82.6347 150.021 82.5707 149.973 82.496L149.717 82.04ZM159.222 82.072C159.398 81.8747 159.585 81.696 159.782 81.536C159.979 81.376 160.187 81.24 160.406 81.128C160.63 81.0107 160.865 80.9227 161.11 80.864C161.361 80.8 161.63 80.768 161.918 80.768C162.361 80.768 162.75 80.8427 163.086 80.992C163.427 81.136 163.71 81.344 163.934 81.616C164.163 81.8827 164.337 82.2053 164.454 82.584C164.571 82.9627 164.63 83.3813 164.63 83.84V89H163.198V83.84C163.198 83.2267 163.057 82.752 162.774 82.416C162.497 82.0747 162.073 81.904 161.502 81.904C161.081 81.904 160.686 82.0053 160.318 82.208C159.955 82.4107 159.619 82.6853 159.31 83.032V89H157.878V80.896H158.734C158.937 80.896 159.062 80.9947 159.11 81.192L159.222 82.072ZM175.286 85.352C174.63 85.3733 174.07 85.4267 173.606 85.512C173.147 85.592 172.771 85.6987 172.478 85.832C172.19 85.9653 171.979 86.1227 171.846 86.304C171.718 86.4853 171.654 86.688 171.654 86.912C171.654 87.1253 171.688 87.3093 171.758 87.464C171.827 87.6187 171.92 87.7467 172.038 87.848C172.16 87.944 172.302 88.016 172.462 88.064C172.627 88.1067 172.803 88.128 172.99 88.128C173.24 88.128 173.47 88.104 173.678 88.056C173.886 88.0027 174.08 87.928 174.262 87.832C174.448 87.736 174.624 87.6213 174.79 87.488C174.96 87.3547 175.126 87.2027 175.286 87.032V85.352ZM170.686 82.04C171.134 81.608 171.616 81.2853 172.134 81.072C172.651 80.8587 173.224 80.752 173.854 80.752C174.307 80.752 174.71 80.8267 175.062 80.976C175.414 81.1253 175.71 81.3333 175.95 81.6C176.19 81.8667 176.371 82.1893 176.494 82.568C176.616 82.9467 176.678 83.3627 176.678 83.816V89H176.046C175.907 89 175.8 88.9787 175.726 88.936C175.651 88.888 175.592 88.7973 175.55 88.664L175.39 87.896C175.176 88.0933 174.968 88.2693 174.766 88.424C174.563 88.5733 174.35 88.7013 174.126 88.808C173.902 88.9093 173.662 88.9867 173.406 89.04C173.155 89.0987 172.875 89.128 172.566 89.128C172.251 89.128 171.955 89.0853 171.678 89C171.4 88.9093 171.158 88.776 170.95 88.6C170.747 88.424 170.584 88.2027 170.462 87.936C170.344 87.664 170.286 87.344 170.286 86.976C170.286 86.656 170.374 86.3493 170.55 86.056C170.726 85.7573 171.011 85.4933 171.406 85.264C171.8 85.0347 172.315 84.848 172.95 84.704C173.584 84.5547 174.363 84.4693 175.286 84.448V83.816C175.286 83.1867 175.15 82.712 174.878 82.392C174.606 82.0667 174.208 81.904 173.686 81.904C173.334 81.904 173.038 81.9493 172.798 82.04C172.563 82.1253 172.358 82.224 172.182 82.336C172.011 82.4427 171.862 82.5413 171.734 82.632C171.611 82.7173 171.488 82.76 171.366 82.76C171.27 82.76 171.187 82.736 171.118 82.688C171.048 82.6347 170.99 82.5707 170.942 82.496L170.686 82.04ZM180.191 82.072C180.367 81.8747 180.553 81.696 180.751 81.536C180.948 81.376 181.156 81.24 181.375 81.128C181.599 81.0107 181.833 80.9227 182.079 80.864C182.329 80.8 182.599 80.768 182.887 80.768C183.329 80.768 183.719 80.8427 184.055 80.992C184.396 81.136 184.679 81.344 184.903 81.616C185.132 81.8827 185.305 82.2053 185.423 82.584C185.54 82.9627 185.599 83.3813 185.599 83.84V89H184.167V83.84C184.167 83.2267 184.025 82.752 183.743 82.416C183.465 82.0747 183.041 81.904 182.471 81.904C182.049 81.904 181.655 82.0053 181.287 82.208C180.924 82.4107 180.588 82.6853 180.279 83.032V89H178.847V80.896H179.703C179.905 80.896 180.031 80.9947 180.079 81.192L180.191 82.072ZM193.049 82.824C192.782 82.4667 192.494 82.2187 192.185 82.08C191.875 81.936 191.529 81.864 191.145 81.864C190.393 81.864 189.814 82.1333 189.409 82.672C189.003 83.2107 188.801 83.9787 188.801 84.976C188.801 85.504 188.846 85.9573 188.937 86.336C189.027 86.7093 189.161 87.0187 189.337 87.264C189.513 87.504 189.729 87.68 189.985 87.792C190.241 87.904 190.531 87.96 190.857 87.96C191.326 87.96 191.734 87.8533 192.081 87.64C192.433 87.4267 192.755 87.1253 193.049 86.736V82.824ZM194.473 77.216V89H193.625C193.422 89 193.294 88.9013 193.241 88.704L193.113 87.72C192.766 88.136 192.371 88.472 191.929 88.728C191.486 88.984 190.974 89.112 190.393 89.112C189.929 89.112 189.507 89.024 189.129 88.848C188.75 88.6667 188.427 88.4027 188.161 88.056C187.894 87.7093 187.689 87.2773 187.545 86.76C187.401 86.2427 187.329 85.648 187.329 84.976C187.329 84.3787 187.409 83.824 187.569 83.312C187.729 82.7947 187.958 82.3467 188.257 81.968C188.555 81.5893 188.921 81.2933 189.353 81.08C189.79 80.8613 190.281 80.752 190.825 80.752C191.321 80.752 191.745 80.8373 192.097 81.008C192.454 81.1733 192.771 81.4053 193.049 81.704V77.216H194.473ZM200.816 89V80.896H201.672C201.874 80.896 202 80.9947 202.048 81.192L202.152 82.024C202.45 81.656 202.786 81.3547 203.16 81.12C203.533 80.8853 203.965 80.768 204.456 80.768C205 80.768 205.44 80.92 205.776 81.224C206.117 81.528 206.362 81.9387 206.512 82.456C206.629 82.1627 206.778 81.9093 206.96 81.696C207.146 81.4827 207.354 81.3067 207.584 81.168C207.813 81.0293 208.056 80.928 208.312 80.864C208.573 80.8 208.837 80.768 209.104 80.768C209.53 80.768 209.909 80.8373 210.24 80.976C210.576 81.1093 210.858 81.3067 211.088 81.568C211.322 81.8293 211.501 82.152 211.624 82.536C211.746 82.9147 211.808 83.3493 211.808 83.84V89H210.376V83.84C210.376 83.2053 210.237 82.7253 209.96 82.4C209.682 82.0693 209.282 81.904 208.76 81.904C208.525 81.904 208.301 81.9467 208.088 82.032C207.88 82.112 207.696 82.232 207.536 82.392C207.376 82.552 207.248 82.7547 207.152 83C207.061 83.24 207.016 83.52 207.016 83.84V89H205.584V83.84C205.584 83.1893 205.453 82.704 205.192 82.384C204.93 82.064 204.549 81.904 204.048 81.904C203.696 81.904 203.37 82 203.072 82.192C202.773 82.3787 202.498 82.6347 202.248 82.96V89H200.816ZM218.364 85.352C217.708 85.3733 217.148 85.4267 216.684 85.512C216.225 85.592 215.849 85.6987 215.556 85.832C215.268 85.9653 215.057 86.1227 214.924 86.304C214.796 86.4853 214.732 86.688 214.732 86.912C214.732 87.1253 214.766 87.3093 214.836 87.464C214.905 87.6187 214.998 87.7467 215.116 87.848C215.238 87.944 215.38 88.016 215.54 88.064C215.705 88.1067 215.881 88.128 216.068 88.128C216.318 88.128 216.548 88.104 216.756 88.056C216.964 88.0027 217.158 87.928 217.34 87.832C217.526 87.736 217.702 87.6213 217.868 87.488C218.038 87.3547 218.204 87.2027 218.364 87.032V85.352ZM213.764 82.04C214.212 81.608 214.694 81.2853 215.212 81.072C215.729 80.8587 216.302 80.752 216.932 80.752C217.385 80.752 217.788 80.8267 218.14 80.976C218.492 81.1253 218.788 81.3333 219.028 81.6C219.268 81.8667 219.449 82.1893 219.572 82.568C219.694 82.9467 219.756 83.3627 219.756 83.816V89H219.124C218.985 89 218.878 88.9787 218.804 88.936C218.729 88.888 218.67 88.7973 218.628 88.664L218.468 87.896C218.254 88.0933 218.046 88.2693 217.844 88.424C217.641 88.5733 217.428 88.7013 217.204 88.808C216.98 88.9093 216.74 88.9867 216.484 89.04C216.233 89.0987 215.953 89.128 215.644 89.128C215.329 89.128 215.033 89.0853 214.756 89C214.478 88.9093 214.236 88.776 214.028 88.6C213.825 88.424 213.662 88.2027 213.54 87.936C213.422 87.664 213.364 87.344 213.364 86.976C213.364 86.656 213.452 86.3493 213.628 86.056C213.804 85.7573 214.089 85.4933 214.484 85.264C214.878 85.0347 215.393 84.848 216.028 84.704C216.662 84.5547 217.441 84.4693 218.364 84.448V83.816C218.364 83.1867 218.228 82.712 217.956 82.392C217.684 82.0667 217.286 81.904 216.764 81.904C216.412 81.904 216.116 81.9493 215.876 82.04C215.641 82.1253 215.436 82.224 215.26 82.336C215.089 82.4427 214.94 82.5413 214.812 82.632C214.689 82.7173 214.566 82.76 214.444 82.76C214.348 82.76 214.265 82.736 214.196 82.688C214.126 82.6347 214.068 82.5707 214.02 82.496L213.764 82.04ZM223.429 80.896V89.6C223.429 89.9253 223.386 90.2267 223.301 90.504C223.216 90.7867 223.08 91.032 222.893 91.24C222.706 91.448 222.466 91.6107 222.173 91.728C221.885 91.8507 221.538 91.912 221.133 91.912C220.962 91.912 220.805 91.8987 220.661 91.872C220.517 91.8453 220.373 91.8053 220.229 91.752L220.285 90.984C220.296 90.936 220.314 90.8987 220.341 90.872C220.362 90.8507 220.394 90.8373 220.437 90.832C220.48 90.8267 220.536 90.824 220.605 90.824C220.669 90.8293 220.752 90.832 220.853 90.832C221.269 90.832 221.565 90.7333 221.741 90.536C221.917 90.344 222.005 90.032 222.005 89.6V80.896H223.429ZM223.725 78.352C223.725 78.4907 223.696 78.6213 223.637 78.744C223.584 78.8613 223.509 78.968 223.413 79.064C223.322 79.1547 223.216 79.2267 223.093 79.28C222.97 79.3333 222.84 79.36 222.701 79.36C222.562 79.36 222.432 79.3333 222.309 79.28C222.192 79.2267 222.088 79.1547 221.997 79.064C221.906 78.968 221.834 78.8613 221.781 78.744C221.728 78.6213 221.701 78.4907 221.701 78.352C221.701 78.2133 221.728 78.0827 221.781 77.96C221.834 77.832 221.906 77.7227 221.997 77.632C222.088 77.536 222.192 77.4613 222.309 77.408C222.432 77.3547 222.562 77.328 222.701 77.328C222.84 77.328 222.97 77.3547 223.093 77.408C223.216 77.4613 223.322 77.536 223.413 77.632C223.509 77.7227 223.584 77.832 223.637 77.96C223.696 78.0827 223.725 78.2133 223.725 78.352ZM229.185 80.768C229.777 80.768 230.31 80.8667 230.785 81.064C231.259 81.2613 231.665 81.5413 232.001 81.904C232.337 82.2667 232.593 82.7067 232.769 83.224C232.95 83.736 233.041 84.3093 233.041 84.944C233.041 85.584 232.95 86.16 232.769 86.672C232.593 87.184 232.337 87.6213 232.001 87.984C231.665 88.3467 231.259 88.6267 230.785 88.824C230.31 89.016 229.777 89.112 229.185 89.112C228.587 89.112 228.049 89.016 227.569 88.824C227.094 88.6267 226.689 88.3467 226.353 87.984C226.017 87.6213 225.758 87.184 225.577 86.672C225.401 86.16 225.313 85.584 225.313 84.944C225.313 84.3093 225.401 83.736 225.577 83.224C225.758 82.7067 226.017 82.2667 226.353 81.904C226.689 81.5413 227.094 81.2613 227.569 81.064C228.049 80.8667 228.587 80.768 229.185 80.768ZM229.185 88C229.985 88 230.582 87.7333 230.977 87.2C231.371 86.6613 231.569 85.912 231.569 84.952C231.569 83.9867 231.371 83.2347 230.977 82.696C230.582 82.1573 229.985 81.888 229.185 81.888C228.779 81.888 228.425 81.9573 228.121 82.096C227.822 82.2347 227.571 82.4347 227.369 82.696C227.171 82.9573 227.022 83.28 226.921 83.664C226.825 84.0427 226.777 84.472 226.777 84.952C226.777 85.912 226.974 86.6613 227.369 87.2C227.769 87.7333 228.374 88 229.185 88ZM236.199 82.52C236.455 81.9653 236.769 81.5333 237.143 81.224C237.516 80.9093 237.972 80.752 238.511 80.752C238.681 80.752 238.844 80.7707 238.999 80.808C239.159 80.8453 239.3 80.904 239.423 80.984L239.319 82.048C239.287 82.1813 239.207 82.248 239.079 82.248C239.004 82.248 238.895 82.232 238.751 82.2C238.607 82.168 238.444 82.152 238.263 82.152C238.007 82.152 237.777 82.1893 237.575 82.264C237.377 82.3387 237.199 82.4507 237.039 82.6C236.884 82.744 236.743 82.9253 236.615 83.144C236.492 83.3573 236.38 83.6027 236.279 83.88V89H234.847V80.896H235.663C235.817 80.896 235.924 80.9253 235.983 80.984C236.041 81.0427 236.081 81.144 236.103 81.288L236.199 82.52ZM245.897 77.216V89H244.473V77.216H245.897ZM253.63 84.064C253.63 83.7333 253.582 83.432 253.486 83.16C253.395 82.8827 253.259 82.6453 253.078 82.448C252.902 82.2453 252.686 82.0907 252.43 81.984C252.174 81.872 251.883 81.816 251.558 81.816C250.875 81.816 250.334 82.016 249.934 82.416C249.539 82.8107 249.294 83.36 249.198 84.064H253.63ZM254.782 87.864C254.606 88.0773 254.395 88.264 254.15 88.424C253.905 88.5787 253.641 88.7067 253.358 88.808C253.081 88.9093 252.793 88.984 252.494 89.032C252.195 89.0853 251.899 89.112 251.606 89.112C251.046 89.112 250.529 89.0187 250.054 88.832C249.585 88.64 249.177 88.3627 248.83 88C248.489 87.632 248.222 87.1787 248.03 86.64C247.838 86.1013 247.742 85.4827 247.742 84.784C247.742 84.2187 247.827 83.6907 247.998 83.2C248.174 82.7093 248.425 82.2853 248.75 81.928C249.075 81.5653 249.473 81.2827 249.942 81.08C250.411 80.872 250.939 80.768 251.526 80.768C252.011 80.768 252.459 80.8507 252.87 81.016C253.286 81.176 253.643 81.4107 253.942 81.72C254.246 82.024 254.483 82.4027 254.654 82.856C254.825 83.304 254.91 83.816 254.91 84.392C254.91 84.616 254.886 84.7653 254.838 84.84C254.79 84.9147 254.699 84.952 254.566 84.952H249.15C249.166 85.464 249.235 85.9093 249.358 86.288C249.486 86.6667 249.662 86.984 249.886 87.24C250.11 87.4907 250.377 87.68 250.686 87.808C250.995 87.9307 251.342 87.992 251.726 87.992C252.083 87.992 252.39 87.952 252.646 87.872C252.907 87.7867 253.131 87.696 253.318 87.6C253.505 87.504 253.659 87.416 253.782 87.336C253.91 87.2507 254.019 87.208 254.11 87.208C254.227 87.208 254.318 87.2533 254.382 87.344L254.782 87.864ZM261.051 85.352C260.395 85.3733 259.835 85.4267 259.371 85.512C258.913 85.592 258.537 85.6987 258.243 85.832C257.955 85.9653 257.745 86.1227 257.611 86.304C257.483 86.4853 257.419 86.688 257.419 86.912C257.419 87.1253 257.454 87.3093 257.523 87.464C257.593 87.6187 257.686 87.7467 257.803 87.848C257.926 87.944 258.067 88.016 258.227 88.064C258.393 88.1067 258.569 88.128 258.755 88.128C259.006 88.128 259.235 88.104 259.443 88.056C259.651 88.0027 259.846 87.928 260.027 87.832C260.214 87.736 260.39 87.6213 260.555 87.488C260.726 87.3547 260.891 87.2027 261.051 87.032V85.352ZM256.451 82.04C256.899 81.608 257.382 81.2853 257.899 81.072C258.417 80.8587 258.99 80.752 259.619 80.752C260.073 80.752 260.475 80.8267 260.827 80.976C261.179 81.1253 261.475 81.3333 261.715 81.6C261.955 81.8667 262.137 82.1893 262.259 82.568C262.382 82.9467 262.443 83.3627 262.443 83.816V89H261.811C261.673 89 261.566 88.9787 261.491 88.936C261.417 88.888 261.358 88.7973 261.315 88.664L261.155 87.896C260.942 88.0933 260.734 88.2693 260.531 88.424C260.329 88.5733 260.115 88.7013 259.891 88.808C259.667 88.9093 259.427 88.9867 259.171 89.04C258.921 89.0987 258.641 89.128 258.331 89.128C258.017 89.128 257.721 89.0853 257.443 89C257.166 88.9093 256.923 88.776 256.715 88.6C256.513 88.424 256.35 88.2027 256.227 87.936C256.11 87.664 256.051 87.344 256.051 86.976C256.051 86.656 256.139 86.3493 256.315 86.056C256.491 85.7573 256.777 85.4933 257.171 85.264C257.566 85.0347 258.081 84.848 258.715 84.704C259.35 84.5547 260.129 84.4693 261.051 84.448V83.816C261.051 83.1867 260.915 82.712 260.643 82.392C260.371 82.0667 259.974 81.904 259.451 81.904C259.099 81.904 258.803 81.9493 258.563 82.04C258.329 82.1253 258.123 82.224 257.947 82.336C257.777 82.4427 257.627 82.5413 257.499 82.632C257.377 82.7173 257.254 82.76 257.131 82.76C257.035 82.76 256.953 82.736 256.883 82.688C256.814 82.6347 256.755 82.5707 256.707 82.496L256.451 82.04ZM267.436 85.04C267.724 85.04 267.978 85 268.196 84.92C268.415 84.84 268.599 84.728 268.748 84.584C268.898 84.44 269.01 84.2693 269.084 84.072C269.159 83.8693 269.196 83.648 269.196 83.408C269.196 82.912 269.044 82.5173 268.74 82.224C268.442 81.9307 268.007 81.784 267.436 81.784C266.86 81.784 266.42 81.9307 266.116 82.224C265.818 82.5173 265.668 82.912 265.668 83.408C265.668 83.648 265.706 83.8693 265.78 84.072C265.86 84.2693 265.975 84.44 266.124 84.584C266.274 84.728 266.458 84.84 266.676 84.92C266.895 85 267.148 85.04 267.436 85.04ZM270.004 89.44C270.004 89.2427 269.948 89.0827 269.836 88.96C269.724 88.8373 269.572 88.7413 269.38 88.672C269.194 88.6027 268.975 88.5547 268.724 88.528C268.474 88.496 268.207 88.472 267.924 88.456C267.647 88.44 267.364 88.424 267.076 88.408C266.788 88.392 266.511 88.3653 266.244 88.328C265.946 88.4667 265.7 88.6427 265.508 88.856C265.322 89.064 265.228 89.3093 265.228 89.592C265.228 89.7733 265.274 89.9413 265.364 90.096C265.46 90.256 265.604 90.392 265.796 90.504C265.988 90.6213 266.228 90.712 266.516 90.776C266.81 90.8453 267.154 90.88 267.548 90.88C267.932 90.88 268.276 90.8453 268.58 90.776C268.884 90.7067 269.14 90.608 269.348 90.48C269.562 90.352 269.724 90.2 269.836 90.024C269.948 89.848 270.004 89.6533 270.004 89.44ZM271.452 81.216V81.744C271.452 81.92 271.34 82.032 271.116 82.08L270.196 82.2C270.378 82.552 270.468 82.9413 270.468 83.368C270.468 83.7627 270.391 84.1227 270.236 84.448C270.087 84.768 269.879 85.0427 269.612 85.272C269.346 85.5013 269.026 85.6773 268.652 85.8C268.279 85.9227 267.874 85.984 267.436 85.984C267.058 85.984 266.7 85.9387 266.364 85.848C266.194 85.9547 266.063 86.0693 265.972 86.192C265.882 86.3093 265.836 86.4293 265.836 86.552C265.836 86.744 265.914 86.8907 266.068 86.992C266.228 87.088 266.436 87.1573 266.692 87.2C266.948 87.2427 267.239 87.2693 267.564 87.28C267.895 87.2907 268.231 87.3093 268.572 87.336C268.919 87.3573 269.255 87.3973 269.58 87.456C269.911 87.5147 270.204 87.6107 270.46 87.744C270.716 87.8773 270.922 88.0613 271.076 88.296C271.236 88.5307 271.316 88.8347 271.316 89.208C271.316 89.5547 271.228 89.8907 271.052 90.216C270.882 90.5413 270.634 90.8293 270.308 91.08C269.983 91.336 269.583 91.5387 269.108 91.688C268.639 91.8427 268.108 91.92 267.516 91.92C266.924 91.92 266.407 91.8613 265.964 91.744C265.522 91.6267 265.154 91.4693 264.86 91.272C264.567 91.0747 264.346 90.8453 264.196 90.584C264.052 90.328 263.98 90.0587 263.98 89.776C263.98 89.376 264.106 89.0373 264.356 88.76C264.607 88.4827 264.951 88.2613 265.388 88.096C265.148 87.9893 264.956 87.848 264.812 87.672C264.674 87.4907 264.604 87.248 264.604 86.944C264.604 86.8267 264.626 86.7067 264.668 86.584C264.711 86.456 264.775 86.3307 264.86 86.208C264.951 86.08 265.06 85.96 265.188 85.848C265.316 85.736 265.466 85.6373 265.636 85.552C265.236 85.328 264.924 85.032 264.7 84.664C264.476 84.2907 264.364 83.8587 264.364 83.368C264.364 82.9733 264.439 82.616 264.588 82.296C264.743 81.9707 264.956 81.696 265.228 81.472C265.5 81.2427 265.823 81.0667 266.196 80.944C266.575 80.8213 266.988 80.76 267.436 80.76C267.788 80.76 268.116 80.8 268.42 80.88C268.724 80.9547 269.002 81.0667 269.252 81.216H271.452ZM279.589 80.896V89H278.741C278.538 89 278.41 88.9013 278.357 88.704L278.245 87.832C277.893 88.2213 277.498 88.536 277.061 88.776C276.624 89.0107 276.122 89.128 275.557 89.128C275.114 89.128 274.722 89.056 274.381 88.912C274.045 88.7627 273.762 88.5547 273.533 88.288C273.304 88.0213 273.13 87.6987 273.013 87.32C272.901 86.9413 272.845 86.5227 272.845 86.064V80.896H274.269V86.064C274.269 86.6773 274.408 87.152 274.685 87.488C274.968 87.824 275.397 87.992 275.973 87.992C276.394 87.992 276.786 87.8933 277.149 87.696C277.517 87.4933 277.856 87.216 278.165 86.864V80.896H279.589ZM287.271 84.064C287.271 83.7333 287.223 83.432 287.127 83.16C287.036 82.8827 286.9 82.6453 286.719 82.448C286.543 82.2453 286.327 82.0907 286.071 81.984C285.815 81.872 285.524 81.816 285.199 81.816C284.516 81.816 283.975 82.016 283.575 82.416C283.18 82.8107 282.935 83.36 282.839 84.064H287.271ZM288.423 87.864C288.247 88.0773 288.036 88.264 287.791 88.424C287.545 88.5787 287.281 88.7067 286.999 88.808C286.721 88.9093 286.433 88.984 286.135 89.032C285.836 89.0853 285.54 89.112 285.247 89.112C284.687 89.112 284.169 89.0187 283.695 88.832C283.225 88.64 282.817 88.3627 282.471 88C282.129 87.632 281.863 87.1787 281.671 86.64C281.479 86.1013 281.383 85.4827 281.383 84.784C281.383 84.2187 281.468 83.6907 281.639 83.2C281.815 82.7093 282.065 82.2853 282.391 81.928C282.716 81.5653 283.113 81.2827 283.583 81.08C284.052 80.872 284.58 80.768 285.167 80.768C285.652 80.768 286.1 80.8507 286.511 81.016C286.927 81.176 287.284 81.4107 287.583 81.72C287.887 82.024 288.124 82.4027 288.295 82.856C288.465 83.304 288.551 83.816 288.551 84.392C288.551 84.616 288.527 84.7653 288.479 84.84C288.431 84.9147 288.34 84.952 288.207 84.952H282.791C282.807 85.464 282.876 85.9093 282.999 86.288C283.127 86.6667 283.303 86.984 283.527 87.24C283.751 87.4907 284.017 87.68 284.327 87.808C284.636 87.9307 284.983 87.992 285.367 87.992C285.724 87.992 286.031 87.952 286.287 87.872C286.548 87.7867 286.772 87.696 286.959 87.6C287.145 87.504 287.3 87.416 287.423 87.336C287.551 87.2507 287.66 87.208 287.751 87.208C287.868 87.208 287.959 87.2533 288.023 87.344L288.423 87.864ZM295.02 82.232C294.956 82.3493 294.857 82.408 294.724 82.408C294.644 82.408 294.553 82.3787 294.452 82.32C294.351 82.2613 294.225 82.1973 294.076 82.128C293.932 82.0533 293.759 81.9867 293.556 81.928C293.353 81.864 293.113 81.832 292.836 81.832C292.596 81.832 292.38 81.864 292.188 81.928C291.996 81.9867 291.831 82.0693 291.692 82.176C291.559 82.2827 291.455 82.408 291.38 82.552C291.311 82.6907 291.276 82.8427 291.276 83.008C291.276 83.216 291.335 83.3893 291.452 83.528C291.575 83.6667 291.735 83.7867 291.932 83.888C292.129 83.9893 292.353 84.08 292.604 84.16C292.855 84.2347 293.111 84.3173 293.372 84.408C293.639 84.4933 293.897 84.5893 294.148 84.696C294.399 84.8027 294.623 84.936 294.82 85.096C295.017 85.256 295.175 85.4533 295.292 85.688C295.415 85.9173 295.476 86.1947 295.476 86.52C295.476 86.8933 295.409 87.24 295.276 87.56C295.143 87.8747 294.945 88.1493 294.684 88.384C294.423 88.6133 294.103 88.7947 293.724 88.928C293.345 89.0613 292.908 89.128 292.412 89.128C291.847 89.128 291.335 89.0373 290.876 88.856C290.417 88.6693 290.028 88.432 289.708 88.144L290.044 87.6C290.087 87.5307 290.137 87.4773 290.196 87.44C290.255 87.4027 290.329 87.384 290.42 87.384C290.516 87.384 290.617 87.4213 290.724 87.496C290.831 87.5707 290.959 87.6533 291.108 87.744C291.263 87.8347 291.449 87.9173 291.668 87.992C291.887 88.0667 292.159 88.104 292.484 88.104C292.761 88.104 293.004 88.0693 293.212 88C293.42 87.9253 293.593 87.8267 293.732 87.704C293.871 87.5813 293.972 87.44 294.036 87.28C294.105 87.12 294.14 86.9493 294.14 86.768C294.14 86.544 294.079 86.36 293.956 86.216C293.839 86.0667 293.681 85.9413 293.484 85.84C293.287 85.7333 293.06 85.6427 292.804 85.568C292.553 85.488 292.295 85.4053 292.028 85.32C291.767 85.2347 291.508 85.1387 291.252 85.032C291.001 84.92 290.777 84.7813 290.58 84.616C290.383 84.4507 290.223 84.248 290.1 84.008C289.983 83.7627 289.924 83.4667 289.924 83.12C289.924 82.8107 289.988 82.5147 290.116 82.232C290.244 81.944 290.431 81.6933 290.676 81.48C290.921 81.2613 291.223 81.088 291.58 80.96C291.937 80.832 292.345 80.768 292.804 80.768C293.337 80.768 293.815 80.8533 294.236 81.024C294.663 81.1893 295.031 81.4187 295.34 81.712L295.02 82.232ZM5.52 108.352C4.864 108.373 4.304 108.427 3.84 108.512C3.38133 108.592 3.00533 108.699 2.712 108.832C2.424 108.965 2.21333 109.123 2.08 109.304C1.952 109.485 1.888 109.688 1.888 109.912C1.888 110.125 1.92267 110.309 1.992 110.464C2.06133 110.619 2.15467 110.747 2.272 110.848C2.39467 110.944 2.536 111.016 2.696 111.064C2.86133 111.107 3.03733 111.128 3.224 111.128C3.47467 111.128 3.704 111.104 3.912 111.056C4.12 111.003 4.31467 110.928 4.496 110.832C4.68267 110.736 4.85867 110.621 5.024 110.488C5.19467 110.355 5.36 110.203 5.52 110.032V108.352ZM0.92 105.04C1.368 104.608 1.85067 104.285 2.368 104.072C2.88533 103.859 3.45867 103.752 4.088 103.752C4.54133 103.752 4.944 103.827 5.296 103.976C5.648 104.125 5.944 104.333 6.184 104.6C6.424 104.867 6.60533 105.189 6.728 105.568C6.85067 105.947 6.912 106.363 6.912 106.816V112H6.28C6.14133 112 6.03467 111.979 5.96 111.936C5.88533 111.888 5.82667 111.797 5.784 111.664L5.624 110.896C5.41067 111.093 5.20267 111.269 5 111.424C4.79733 111.573 4.584 111.701 4.36 111.808C4.136 111.909 3.896 111.987 3.64 112.04C3.38933 112.099 3.10933 112.128 2.8 112.128C2.48533 112.128 2.18933 112.085 1.912 112C1.63467 111.909 1.392 111.776 1.184 111.6C0.981333 111.424 0.818667 111.203 0.696 110.936C0.578667 110.664 0.52 110.344 0.52 109.976C0.52 109.656 0.608 109.349 0.784 109.056C0.96 108.757 1.24533 108.493 1.64 108.264C2.03467 108.035 2.54933 107.848 3.184 107.704C3.81867 107.555 4.59733 107.469 5.52 107.448V106.816C5.52 106.187 5.384 105.712 5.112 105.392C4.84 105.067 4.44267 104.904 3.92 104.904C3.568 104.904 3.272 104.949 3.032 105.04C2.79733 105.125 2.592 105.224 2.416 105.336C2.24533 105.443 2.096 105.541 1.968 105.632C1.84533 105.717 1.72267 105.76 1.6 105.76C1.504 105.76 1.42133 105.736 1.352 105.688C1.28267 105.635 1.224 105.571 1.176 105.496L0.92 105.04ZM10.4251 105.072C10.6011 104.875 10.7878 104.696 10.9851 104.536C11.1825 104.376 11.3905 104.24 11.6091 104.128C11.8331 104.011 12.0678 103.923 12.3131 103.864C12.5638 103.8 12.8331 103.768 13.1211 103.768C13.5638 103.768 13.9531 103.843 14.2891 103.992C14.6305 104.136 14.9131 104.344 15.1371 104.616C15.3665 104.883 15.5398 105.205 15.6571 105.584C15.7745 105.963 15.8331 106.381 15.8331 106.84V112H14.4011V106.84C14.4011 106.227 14.2598 105.752 13.9771 105.416C13.6998 105.075 13.2758 104.904 12.7051 104.904C12.2838 104.904 11.8891 105.005 11.5211 105.208C11.1585 105.411 10.8225 105.685 10.5131 106.032V112H9.08113V103.896H9.93713C10.1398 103.896 10.2651 103.995 10.3131 104.192L10.4251 105.072ZM23.283 105.824C23.0163 105.467 22.7283 105.219 22.419 105.08C22.1097 104.936 21.763 104.864 21.379 104.864C20.627 104.864 20.0483 105.133 19.643 105.672C19.2377 106.211 19.035 106.979 19.035 107.976C19.035 108.504 19.0803 108.957 19.171 109.336C19.2617 109.709 19.395 110.019 19.571 110.264C19.747 110.504 19.963 110.68 20.219 110.792C20.475 110.904 20.7657 110.96 21.091 110.96C21.5603 110.96 21.9683 110.853 22.315 110.64C22.667 110.427 22.9897 110.125 23.283 109.736V105.824ZM24.707 100.216V112H23.859C23.6563 112 23.5283 111.901 23.475 111.704L23.347 110.72C23.0003 111.136 22.6057 111.472 22.163 111.728C21.7203 111.984 21.2083 112.112 20.627 112.112C20.163 112.112 19.7417 112.024 19.363 111.848C18.9843 111.667 18.6617 111.403 18.395 111.056C18.1283 110.709 17.923 110.277 17.779 109.76C17.635 109.243 17.563 108.648 17.563 107.976C17.563 107.379 17.643 106.824 17.803 106.312C17.963 105.795 18.1923 105.347 18.491 104.968C18.7897 104.589 19.155 104.293 19.587 104.08C20.0243 103.861 20.515 103.752 21.059 103.752C21.555 103.752 21.979 103.837 22.331 104.008C22.6883 104.173 23.0057 104.405 23.283 104.704V100.216H24.707ZM33.5379 112.128C32.8979 112.128 32.4045 111.949 32.0579 111.592C31.7165 111.235 31.5459 110.72 31.5459 110.048V105.088H30.5699C30.4845 105.088 30.4125 105.064 30.3539 105.016C30.2952 104.963 30.2659 104.883 30.2659 104.776V104.208L31.5939 104.04L31.9219 101.536C31.9379 101.456 31.9725 101.392 32.0259 101.344C32.0845 101.291 32.1592 101.264 32.2499 101.264H32.9699V104.056H35.3139V105.088H32.9699V109.952C32.9699 110.293 33.0525 110.547 33.2179 110.712C33.3832 110.877 33.5965 110.96 33.8579 110.96C34.0072 110.96 34.1352 110.941 34.2419 110.904C34.3539 110.861 34.4499 110.816 34.5299 110.768C34.6099 110.72 34.6765 110.677 34.7299 110.64C34.7885 110.597 34.8392 110.576 34.8819 110.576C34.9565 110.576 35.0232 110.621 35.0819 110.712L35.4979 111.392C35.2525 111.621 34.9565 111.803 34.6099 111.936C34.2632 112.064 33.9059 112.128 33.5379 112.128ZM40.1534 103.768C40.7454 103.768 41.2787 103.867 41.7534 104.064C42.228 104.261 42.6334 104.541 42.9694 104.904C43.3054 105.267 43.5614 105.707 43.7374 106.224C43.9187 106.736 44.0094 107.309 44.0094 107.944C44.0094 108.584 43.9187 109.16 43.7374 109.672C43.5614 110.184 43.3054 110.621 42.9694 110.984C42.6334 111.347 42.228 111.627 41.7534 111.824C41.2787 112.016 40.7454 112.112 40.1534 112.112C39.556 112.112 39.0174 112.016 38.5374 111.824C38.0627 111.627 37.6574 111.347 37.3214 110.984C36.9854 110.621 36.7267 110.184 36.5454 109.672C36.3694 109.16 36.2814 108.584 36.2814 107.944C36.2814 107.309 36.3694 106.736 36.5454 106.224C36.7267 105.707 36.9854 105.267 37.3214 104.904C37.6574 104.541 38.0627 104.261 38.5374 104.064C39.0174 103.867 39.556 103.768 40.1534 103.768ZM40.1534 111C40.9534 111 41.5507 110.733 41.9454 110.2C42.34 109.661 42.5374 108.912 42.5374 107.952C42.5374 106.987 42.34 106.235 41.9454 105.696C41.5507 105.157 40.9534 104.888 40.1534 104.888C39.748 104.888 39.3934 104.957 39.0894 105.096C38.7907 105.235 38.54 105.435 38.3374 105.696C38.14 105.957 37.9907 106.28 37.8894 106.664C37.7934 107.043 37.7454 107.472 37.7454 107.952C37.7454 108.912 37.9427 109.661 38.3374 110.2C38.7374 110.733 39.3427 111 40.1534 111ZM52.4795 103.896V112H51.6315C51.4288 112 51.3008 111.901 51.2475 111.704L51.1355 110.832C50.7835 111.221 50.3888 111.536 49.9515 111.776C49.5142 112.011 49.0128 112.128 48.4475 112.128C48.0048 112.128 47.6128 112.056 47.2715 111.912C46.9355 111.763 46.6528 111.555 46.4235 111.288C46.1942 111.021 46.0208 110.699 45.9035 110.32C45.7915 109.941 45.7355 109.523 45.7355 109.064V103.896H47.1595V109.064C47.1595 109.677 47.2982 110.152 47.5755 110.488C47.8582 110.824 48.2875 110.992 48.8635 110.992C49.2848 110.992 49.6768 110.893 50.0395 110.696C50.4075 110.493 50.7462 110.216 51.0555 109.864V103.896H52.4795ZM56.0894 105.52C56.3454 104.965 56.66 104.533 57.0334 104.224C57.4067 103.909 57.8627 103.752 58.4014 103.752C58.572 103.752 58.7347 103.771 58.8894 103.808C59.0494 103.845 59.1907 103.904 59.3134 103.984L59.2094 105.048C59.1774 105.181 59.0974 105.248 58.9694 105.248C58.8947 105.248 58.7854 105.232 58.6414 105.2C58.4974 105.168 58.3347 105.152 58.1534 105.152C57.8974 105.152 57.668 105.189 57.4654 105.264C57.268 105.339 57.0894 105.451 56.9294 105.6C56.7747 105.744 56.6334 105.925 56.5054 106.144C56.3827 106.357 56.2707 106.603 56.1694 106.88V112H54.7374V103.896H55.5534C55.708 103.896 55.8147 103.925 55.8734 103.984C55.932 104.043 55.972 104.144 55.9934 104.288L56.0894 105.52ZM61.9095 105.072C62.0855 104.875 62.2722 104.696 62.4695 104.536C62.6668 104.376 62.8748 104.24 63.0935 104.128C63.3175 104.011 63.5522 103.923 63.7975 103.864C64.0482 103.8 64.3175 103.768 64.6055 103.768C65.0482 103.768 65.4375 103.843 65.7735 103.992C66.1148 104.136 66.3975 104.344 66.6215 104.616C66.8508 104.883 67.0242 105.205 67.1415 105.584C67.2588 105.963 67.3175 106.381 67.3175 106.84V112H65.8855V106.84C65.8855 106.227 65.7442 105.752 65.4615 105.416C65.1842 105.075 64.7602 104.904 64.1895 104.904C63.7682 104.904 63.3735 105.005 63.0055 105.208C62.6428 105.411 62.3068 105.685 61.9975 106.032V112H60.5655V103.896H61.4215C61.6242 103.896 61.7495 103.995 61.7975 104.192L61.9095 105.072ZM73.8794 108.352C73.2234 108.373 72.6634 108.427 72.1994 108.512C71.7407 108.592 71.3647 108.699 71.0714 108.832C70.7834 108.965 70.5727 109.123 70.4394 109.304C70.3114 109.485 70.2474 109.688 70.2474 109.912C70.2474 110.125 70.282 110.309 70.3514 110.464C70.4207 110.619 70.514 110.747 70.6314 110.848C70.754 110.944 70.8954 111.016 71.0554 111.064C71.2207 111.107 71.3967 111.128 71.5834 111.128C71.834 111.128 72.0634 111.104 72.2714 111.056C72.4794 111.003 72.674 110.928 72.8554 110.832C73.042 110.736 73.218 110.621 73.3834 110.488C73.554 110.355 73.7194 110.203 73.8794 110.032V108.352ZM69.2794 105.04C69.7274 104.608 70.21 104.285 70.7274 104.072C71.2447 103.859 71.818 103.752 72.4474 103.752C72.9007 103.752 73.3034 103.827 73.6554 103.976C74.0074 104.125 74.3034 104.333 74.5434 104.6C74.7834 104.867 74.9647 105.189 75.0874 105.568C75.21 105.947 75.2714 106.363 75.2714 106.816V112H74.6394C74.5007 112 74.394 111.979 74.3194 111.936C74.2447 111.888 74.186 111.797 74.1434 111.664L73.9834 110.896C73.77 111.093 73.562 111.269 73.3594 111.424C73.1567 111.573 72.9434 111.701 72.7194 111.808C72.4954 111.909 72.2554 111.987 71.9994 112.04C71.7487 112.099 71.4687 112.128 71.1594 112.128C70.8447 112.128 70.5487 112.085 70.2714 112C69.994 111.909 69.7514 111.776 69.5434 111.6C69.3407 111.424 69.178 111.203 69.0554 110.936C68.938 110.664 68.8794 110.344 68.8794 109.976C68.8794 109.656 68.9674 109.349 69.1434 109.056C69.3194 108.757 69.6047 108.493 69.9994 108.264C70.394 108.035 70.9087 107.848 71.5434 107.704C72.178 107.555 72.9567 107.469 73.8794 107.448V106.816C73.8794 106.187 73.7434 105.712 73.4714 105.392C73.1994 105.067 72.802 104.904 72.2794 104.904C71.9274 104.904 71.6314 104.949 71.3914 105.04C71.1567 105.125 70.9514 105.224 70.7754 105.336C70.6047 105.443 70.4554 105.541 70.3274 105.632C70.2047 105.717 70.082 105.76 69.9594 105.76C69.8634 105.76 69.7807 105.736 69.7114 105.688C69.642 105.635 69.5834 105.571 69.5354 105.496L69.2794 105.04ZM77.4405 112V103.896H78.2965C78.4992 103.896 78.6245 103.995 78.6725 104.192L78.7765 105.024C79.0752 104.656 79.4112 104.355 79.7845 104.12C80.1578 103.885 80.5898 103.768 81.0805 103.768C81.6245 103.768 82.0645 103.92 82.4005 104.224C82.7418 104.528 82.9872 104.939 83.1365 105.456C83.2538 105.163 83.4032 104.909 83.5845 104.696C83.7712 104.483 83.9792 104.307 84.2085 104.168C84.4378 104.029 84.6805 103.928 84.9365 103.864C85.1978 103.8 85.4618 103.768 85.7285 103.768C86.1552 103.768 86.5338 103.837 86.8645 103.976C87.2005 104.109 87.4832 104.307 87.7125 104.568C87.9472 104.829 88.1258 105.152 88.2485 105.536C88.3712 105.915 88.4325 106.349 88.4325 106.84V112H87.0005V106.84C87.0005 106.205 86.8618 105.725 86.5845 105.4C86.3072 105.069 85.9072 104.904 85.3845 104.904C85.1498 104.904 84.9258 104.947 84.7125 105.032C84.5045 105.112 84.3205 105.232 84.1605 105.392C84.0005 105.552 83.8725 105.755 83.7765 106C83.6858 106.24 83.6405 106.52 83.6405 106.84V112H82.2085V106.84C82.2085 106.189 82.0778 105.704 81.8165 105.384C81.5552 105.064 81.1738 104.904 80.6725 104.904C80.3205 104.904 79.9952 105 79.6965 105.192C79.3978 105.379 79.1232 105.635 78.8725 105.96V112H77.4405ZM96.0208 107.064C96.0208 106.733 95.9728 106.432 95.8768 106.16C95.7861 105.883 95.6501 105.645 95.4688 105.448C95.2928 105.245 95.0768 105.091 94.8208 104.984C94.5648 104.872 94.2741 104.816 93.9488 104.816C93.2661 104.816 92.7248 105.016 92.3248 105.416C91.9301 105.811 91.6848 106.36 91.5888 107.064H96.0208ZM97.1728 110.864C96.9968 111.077 96.7861 111.264 96.5408 111.424C96.2954 111.579 96.0314 111.707 95.7488 111.808C95.4714 111.909 95.1834 111.984 94.8848 112.032C94.5861 112.085 94.2901 112.112 93.9968 112.112C93.4368 112.112 92.9194 112.019 92.4448 111.832C91.9754 111.64 91.5674 111.363 91.2208 111C90.8794 110.632 90.6128 110.179 90.4208 109.64C90.2288 109.101 90.1328 108.483 90.1328 107.784C90.1328 107.219 90.2181 106.691 90.3888 106.2C90.5648 105.709 90.8154 105.285 91.1408 104.928C91.4661 104.565 91.8634 104.283 92.3328 104.08C92.8021 103.872 93.3301 103.768 93.9168 103.768C94.4021 103.768 94.8501 103.851 95.2608 104.016C95.6768 104.176 96.0341 104.411 96.3328 104.72C96.6368 105.024 96.8741 105.403 97.0448 105.856C97.2154 106.304 97.3008 106.816 97.3008 107.392C97.3008 107.616 97.2768 107.765 97.2288 107.84C97.1808 107.915 97.0901 107.952 96.9568 107.952H91.5408C91.5568 108.464 91.6261 108.909 91.7488 109.288C91.8768 109.667 92.0528 109.984 92.2768 110.24C92.5008 110.491 92.7674 110.68 93.0768 110.808C93.3861 110.931 93.7328 110.992 94.1168 110.992C94.4741 110.992 94.7808 110.952 95.0368 110.872C95.2981 110.787 95.5221 110.696 95.7088 110.6C95.8954 110.504 96.0501 110.416 96.1728 110.336C96.3008 110.251 96.4101 110.208 96.5008 110.208C96.6181 110.208 96.7088 110.253 96.7728 110.344L97.1728 110.864ZM100.394 105.072C100.57 104.875 100.757 104.696 100.954 104.536C101.151 104.376 101.359 104.24 101.578 104.128C101.802 104.011 102.037 103.923 102.282 103.864C102.533 103.8 102.802 103.768 103.09 103.768C103.533 103.768 103.922 103.843 104.258 103.992C104.599 104.136 104.882 104.344 105.106 104.616C105.335 104.883 105.509 105.205 105.626 105.584C105.743 105.963 105.802 106.381 105.802 106.84V112H104.37V106.84C104.37 106.227 104.229 105.752 103.946 105.416C103.669 105.075 103.245 104.904 102.674 104.904C102.253 104.904 101.858 105.005 101.49 105.208C101.127 105.411 100.791 105.685 100.482 106.032V112H99.0499V103.896H99.9059C100.109 103.896 100.234 103.995 100.282 104.192L100.394 105.072ZM110.35 112.128C109.71 112.128 109.217 111.949 108.87 111.592C108.529 111.235 108.358 110.72 108.358 110.048V105.088H107.382C107.297 105.088 107.225 105.064 107.166 105.016C107.108 104.963 107.078 104.883 107.078 104.776V104.208L108.406 104.04L108.734 101.536C108.75 101.456 108.785 101.392 108.838 101.344C108.897 101.291 108.972 101.264 109.062 101.264H109.782V104.056H112.126V105.088H109.782V109.952C109.782 110.293 109.865 110.547 110.03 110.712C110.196 110.877 110.409 110.96 110.67 110.96C110.82 110.96 110.948 110.941 111.054 110.904C111.166 110.861 111.262 110.816 111.342 110.768C111.422 110.72 111.489 110.677 111.542 110.64C111.601 110.597 111.652 110.576 111.694 110.576C111.769 110.576 111.836 110.621 111.894 110.712L112.31 111.392C112.065 111.621 111.769 111.803 111.422 111.936C111.076 112.064 110.718 112.128 110.35 112.128ZM118.317 105.232C118.253 105.349 118.154 105.408 118.021 105.408C117.941 105.408 117.85 105.379 117.749 105.32C117.647 105.261 117.522 105.197 117.373 105.128C117.229 105.053 117.055 104.987 116.853 104.928C116.65 104.864 116.41 104.832 116.133 104.832C115.893 104.832 115.677 104.864 115.485 104.928C115.293 104.987 115.127 105.069 114.989 105.176C114.855 105.283 114.751 105.408 114.677 105.552C114.607 105.691 114.573 105.843 114.573 106.008C114.573 106.216 114.631 106.389 114.749 106.528C114.871 106.667 115.031 106.787 115.229 106.888C115.426 106.989 115.65 107.08 115.901 107.16C116.151 107.235 116.407 107.317 116.669 107.408C116.935 107.493 117.194 107.589 117.445 107.696C117.695 107.803 117.919 107.936 118.117 108.096C118.314 108.256 118.471 108.453 118.589 108.688C118.711 108.917 118.773 109.195 118.773 109.52C118.773 109.893 118.706 110.24 118.573 110.56C118.439 110.875 118.242 111.149 117.981 111.384C117.719 111.613 117.399 111.795 117.021 111.928C116.642 112.061 116.205 112.128 115.709 112.128C115.143 112.128 114.631 112.037 114.173 111.856C113.714 111.669 113.325 111.432 113.005 111.144L113.341 110.6C113.383 110.531 113.434 110.477 113.493 110.44C113.551 110.403 113.626 110.384 113.717 110.384C113.813 110.384 113.914 110.421 114.021 110.496C114.127 110.571 114.255 110.653 114.405 110.744C114.559 110.835 114.746 110.917 114.965 110.992C115.183 111.067 115.455 111.104 115.781 111.104C116.058 111.104 116.301 111.069 116.509 111C116.717 110.925 116.89 110.827 117.029 110.704C117.167 110.581 117.269 110.44 117.333 110.28C117.402 110.12 117.437 109.949 117.437 109.768C117.437 109.544 117.375 109.36 117.253 109.216C117.135 109.067 116.978 108.941 116.781 108.84C116.583 108.733 116.357 108.643 116.101 108.568C115.85 108.488 115.591 108.405 115.325 108.32C115.063 108.235 114.805 108.139 114.549 108.032C114.298 107.92 114.074 107.781 113.877 107.616C113.679 107.451 113.519 107.248 113.397 107.008C113.279 106.763 113.221 106.467 113.221 106.12C113.221 105.811 113.285 105.515 113.413 105.232C113.541 104.944 113.727 104.693 113.973 104.48C114.218 104.261 114.519 104.088 114.877 103.96C115.234 103.832 115.642 103.768 116.101 103.768C116.634 103.768 117.111 103.853 117.533 104.024C117.959 104.189 118.327 104.419 118.637 104.712L118.317 105.232Z" fill="white"/>
<path d="M31.6667 5H8.33333C6.5 5 5 6.5 5 8.33333V31.6667C5 33.5 6.5 35 8.33333 35H31.6667C33.5 35 35 33.5 35 31.6667V8.33333C35 6.5 33.5 5 31.6667 5ZM15 28.3333H11.6667V16.6667H15V28.3333ZM21.6667 28.3333H18.3333V11.6667H21.6667V28.3333ZM28.3333 28.3333H25V21.6667H28.3333V28.3333Z" fill="white"/>
</svg>
