<svg width="1440" height="716" viewBox="0 0 1440 716" fill="none" xmlns="http://www.w3.org/2000/svg">
<mask id="mask0" mask-type="alpha" maskUnits="userSpaceOnUse" x="0" y="0" width="1440" height="716">
<rect width="1440" height="716" transform="matrix(-1 0 0 1 1440 0)" fill="white"/>
</mask>
<g mask="url(#mask0)">
<rect width="1440" height="716" transform="matrix(-1 0 0 1 1440 0)" fill="white"/>
<g opacity="0.15">
<circle r="399.5" transform="matrix(-1 0 0 1 1035 354)" stroke="#00ADEE"/>
<circle opacity="0.65" r="499.5" transform="matrix(-1 0 0 1 1035 354)" stroke="#00ADEE"/>
<circle opacity="0.55" r="599.5" transform="matrix(-1 0 0 1 1035 354)" stroke="#00ADEE"/>
<circle opacity="0.45" r="699.5" transform="matrix(-1 0 0 1 1035 354)" stroke="#00ADEE"/>
<circle opacity="0.35" r="799.5" transform="matrix(-1 0 0 1 1035 354)" stroke="#00ADEE"/>
<circle opacity="0.25" r="899.5" transform="matrix(-1 0 0 1 1035 354)" stroke="#00ADEE"/>
<circle opacity="0.15" r="999.5" transform="matrix(-1 0 0 1 1035 354)" stroke="#00ADEE"/>
</g>
<circle r="200.5" transform="matrix(-1 0 0 1 1035 354)" stroke="#00ADEE" stroke-dasharray="8 8"/>
<circle r="300.5" transform="matrix(-1 0 0 1 1035 354)" stroke="#00ADEE" stroke-dasharray="8 8"/>
</g>
<g filter="url(#filter0_dd)">
<circle r="15" transform="matrix(-1 0 0 1 790 527)" fill="white"/>
</g>
<circle r="7" transform="matrix(-1 0 0 1 790 527)" fill="#00ADEE"/>
<defs>
<filter id="filter0_dd" x="759.31" y="499.448" width="61.3793" height="61.3793" filterUnits="userSpaceOnUse" color-interpolation-filters="sRGB">
<feFlood flood-opacity="0" result="BackgroundImageFix"/>
<feColorMatrix in="SourceAlpha" type="matrix" values="0 0 0 0 0 0 0 0 0 0 0 0 0 0 0 0 0 0 127 0"/>
<feOffset dy="3.13793"/>
<feGaussianBlur stdDeviation="7.84483"/>
<feColorMatrix type="matrix" values="0 0 0 0 0 0 0 0 0 0 0 0 0 0 0 0 0 0 0.25 0"/>
<feBlend mode="normal" in2="BackgroundImageFix" result="effect1_dropShadow"/>
<feColorMatrix in="SourceAlpha" type="matrix" values="0 0 0 0 0 0 0 0 0 0 0 0 0 0 0 0 0 0 127 0"/>
<feOffset dy="2.51034"/>
<feGaussianBlur stdDeviation="3.13793"/>
<feColorMatrix type="matrix" values="0 0 0 0 0.2 0 0 0 0 0.2 0 0 0 0 0.2 0 0 0 0.1 0"/>
<feBlend mode="normal" in2="effect1_dropShadow" result="effect2_dropShadow"/>
<feBlend mode="normal" in="SourceGraphic" in2="effect2_dropShadow" result="shape"/>
</filter>
</defs>
</svg>
